<?xml version="1.0" encoding="utf-8"?>
<!-- Generator: Adobe Illustrator 23.1.1, SVG Export Plug-In . SVG Version: 6.00 Build 0)  -->
<svg version="1.1" id="Camada_1" xmlns="http://www.w3.org/2000/svg" xmlns:xlink="http://www.w3.org/1999/xlink" x="0px" y="0px"
	 viewBox="0 0 800 800" style="enable-background:new 0 0 800 800;" xml:space="preserve">
<style type="text/css">
	.st0{fill:#E99500;}
	.st1{fill:#E99500;stroke:#E99500;stroke-width:8.1914;stroke-miterlimit:10;}
	.st2{fill:#E99500;stroke:#E99500;stroke-width:4.3556;stroke-miterlimit:10;}
</style>
<g>
	<path class="st1" d="M494.1,169.1c5.1,4.1,4,9.8,4,15.2c0.1,6.9-0.7,7.3,6.8,7c3.8-0.1,6.3,1.7,7.9,4.8c4.8,9.4,9.6,18.7,14,28.2
		c2.8,5.8,1,9.9-5,11.7c-3.3,1-2.9,2.5-1.7,4.8c2.2,4.3,4.5,8.6,6.5,13.1c3,6.5,1.6,9.9-5,12.4c-2.4,0.9-2.8,2-1.7,4.2
		c2.3,4.5,4.6,8.9,6.7,13.5c3.3,7.3,0.3,12.7-7.7,12.9c-5.1,0.1-6.3,2.2-5.7,6.5c0.1,1.1,0.1,2.2,0,3.3c-0.5,3.9,1.1,5.2,5,5.1
		c15.1-0.2,30.1-0.1,45.2-0.1c11.8,0,17.6,5.8,17.6,17.6c0,4.2,0.1,8.5,0,12.7c-0.1,7-4.1,12.6-10.7,14.3c-3.5,0.9-4.4,2.6-4.4,5.9
		c0.1,74.3,0.1,148.7,0,223c0,4.1,1.4,5.3,5.4,5.5c12.6,0.7,17.3,5.9,17.3,18.5c0,8.8,0.1,17.6,0,26.3c-0.1,9.6-6,15.5-15.6,15.5
		c-115.3,0-230.5,0-345.8,0c-9.6,0-15.5-5.9-15.6-15.5c-0.1-9.1,0-18.2,0-27.3c0-11.1,4.7-16.6,15.9-17.4c7.2-0.5,6.7-0.6,6.7-7.5
		c0-73.2,0-146.5,0.1-219.7c0-4.1-0.6-6.5-5.3-7.6c-5.8-1.4-9.7-7.3-9.8-13.5c-0.1-5-0.1-10,0-15.1c0.1-9.3,6.4-15.6,15.7-15.7
		c15.5-0.1,31.1-0.2,46.6,0.1c4.4,0.1,6.1-1.3,5.5-5.6c-0.2-1.2-0.2-2.5,0-3.8c0.5-4.1-1.1-5.4-5.2-5.5c-8.7-0.3-11.6-5.5-8-13.4
		c2-4.4,4.3-8.7,6.5-13.1c1.1-2.2,0.7-3.3-1.7-4.2c-6.6-2.5-8-5.9-5-12.4c2-4.4,4.2-8.7,6.5-13.1c1.2-2.3,1.5-3.8-1.7-4.8
		c-5.8-1.7-7.7-5.8-5.1-11.3c4.6-9.8,9.5-19.4,14.5-29.1c1.6-3.2,4.5-4.5,8.2-4.5c6.3,0,6.3-0.1,6.3-6.5c0-2.8,0-5.6,0.1-8.5
		c0.1-3.1,2-5.2,4-7.2c2.2,0,4.4,0,6.6,0c3.5,2,4.7,5.3,4.8,9.1c0.1,2.2,0,4.4,0,6.6c0,6.4,0,6.5,6.3,6.6c3.2,0.1,6,0.9,7.5,3.9
		c5.1,10,10.4,20.1,15.1,30.3c2.4,5.2,0.2,9.1-5.5,10.7c-2.8,0.8-3.1,1.8-1.9,4.3c2.5,4.7,4.9,9.5,7.1,14.3
		c2.6,5.9,0.8,9.8-5.2,11.6c-2.8,0.8-3.1,1.8-1.8,4.3c2.4,4.4,4.6,8.9,6.7,13.5c3.4,7.3,0.5,12.6-7.6,12.9c-4.8,0.2-6.1,2-5.6,6.2
		c0.1,1.2,0.1,2.5,0,3.8c-0.4,3.6,1.1,5,4.8,4.9c10.5-0.2,21,0,31.5-0.1c9.4,0,8.2,1,8.5-8.7c0.1-4.3-0.9-6-5.6-6.2
		c-8.3-0.3-11.1-5.6-7.5-13.2c2.1-4.4,4.2-8.7,6.5-13c1.2-2.3,1.2-3.4-1.7-4.3c-6.4-1.9-8-5.8-5.3-11.9c2.2-4.9,4.6-9.6,7.1-14.3
		c1.1-2.2,1-3.2-1.6-4c-6.5-1.9-8.4-5.7-5.5-11.7c4.5-9.6,9.5-19.1,14.2-28.6c1.5-3.1,4-4.7,7.5-4.6c7.6,0.2,6.8-0.1,6.8-7.5
		c0-5.3-0.8-10.8,4-14.8c2.5,0,5,0,7.5,0c5.4,4.6,4,10.9,3.9,16.7c-0.1,4.2,1.1,6.2,5.5,5.6c3.5-0.4,6.7,0.4,8.4,3.8
		c5.1,10,10.3,20.1,15.1,30.3c2.4,5.2,0.2,9.3-5.4,10.7c-3.2,0.8-3.2,2.1-1.9,4.6c2.4,4.6,4.8,9.2,6.9,13.9
		c2.7,6.1,1.1,9.9-5.3,11.9c-2.9,0.9-2.9,2.1-1.7,4.3c2.4,4.6,4.8,9.2,6.9,13.9c2.9,6.5,0.3,11.2-6.5,12.3c-6.9,1.2-6.9,1.2-6.9,8.1
		c0,0.9,0.1,1.9,0,2.8c-0.2,2.7,0.9,4,3.8,4c12.4-0.1,24.8-0.1,37.2,0c2.9,0,4-1.2,3.8-4c-0.1-1.6-0.2-3.2,0-4.7
		c0.5-4.3-0.9-6-5.6-6.2c-8.1-0.3-11-5.6-7.6-12.9c2.2-4.7,4.5-9.3,6.9-13.9c1.1-2.1,0.6-3-1.6-3.7c-6.8-2.3-8.3-6-5.3-12.6
		c2.2-4.7,4.5-9.3,6.9-13.9c1.1-2.1,0.5-3-1.7-3.7c-6.7-2.2-8.4-5.9-5.5-12.1c4.5-9.3,9.2-18.5,13.8-27.8c1.4-2.8,3.5-4.7,6.9-5
		c7.7-0.8,7.7-0.8,7.7-8.5c0-1.7,0-3.5,0.1-5.2c0.2-3.6,1.4-6.7,4.8-8.6C489.7,169.1,491.9,169.1,494.1,169.1z M399.8,636.5
		c7.5,0,15.1,0,22.6,0c48.3,0,96.6-0.1,144.9,0.1c4.4,0,6.2-1.2,6-5.8c-0.3-5.8-0.1-11.6-0.1-17.4c0-7.3,0-7.3-7.1-7.3
		c-91.4,0-182.8,0-274.3,0c-1.9,0-3.8,0.1-5.6-0.1c-3.9-0.5-6.4-2.8-6.7-6.7c-0.4-4.1,1.9-7,5.9-7.8c3-0.6,6.2-0.7,9.4-0.7
		c83.1,0,166.2,0,249.3,0c6.3,0,6.5-0.2,6.5-6.2c0-73.7,0-147.4,0.1-221.1c0-4.4-1.1-6.1-5.8-6.1c-6,0-9.1-3.3-8.9-8.1
		c0.2-4.5,3.6-7.1,9.3-7.2c5.3-0.1,10.7,0,16-0.1c1.5,0,3.6,0.4,4-1.6c0.7-3.8,1.3-8-0.3-11.6c-1.3-2.8-4.8-1.4-7.3-1.4
		c-105.1-0.1-210.1-0.1-315.2-0.1c-1.6,0-3.1,0-4.7,0.1c-1.1,0-2.5,0.1-2.8,1.3c-1,3.8-1.2,7.9-0.1,11.6c0.9,3,4.4,1.6,6.7,1.6
		C330,342,418.4,342,506.9,342c1.9,0,3.8-0.1,5.6,0.1c4.8,0.3,8,3.3,8.1,7.5c0.1,3.9-2.8,7.1-7.4,7.7c-2.9,0.4-6,0.5-8.9,0.2
		c-4.5-0.4-6.8,0.9-6.2,5.9c0.4,3.3-0.9,6.2-4,7.9c-5.4,3-11.1-0.7-11.2-8c-0.1-5-2-5.9-6.5-5.8c-20.5,0.2-41.1,0.1-61.6,0.1
		c-6.4,0-6.4,0-7,6.4c-0.5,5.1-3.7,8.5-7.9,8.4c-4-0.1-7-3.4-7.6-8.2c0-0.5-0.1-0.9,0-1.4c0.6-4.3-1.5-5.3-5.4-5.3
		c-21.3,0.2-42.7,0.1-64,0c-3.9,0-6,0.9-5.6,5.2c0.1,1-0.2,2.2-0.5,3.2c-1.1,4.3-4.3,6.9-8.1,6.3c-4.3-0.7-6.5-3.4-6.9-7.7
		c-0.6-6.9-0.6-6.9-7.4-6.9c-12.5,0-25.1,0-37.6,0c-7.3,0-7.3,0-7.3,7.1c0,72.9,0,145.8,0,218.8c0,6.4-0.4,7.4,6.7,7.7
		c5.5,0.3,8.1,3.4,7.8,8c-0.3,4.5-3.2,6.9-8.9,6.9c-7.7,0.1-15.4,0.2-23,0c-3.8-0.1-5.4,1.1-5.3,5.1c0.2,6.1,0.1,12.2,0.1,18.3
		c0,7.1,0,7.1,6.9,7.1C289.1,636.5,344.4,636.5,399.8,636.5z M400.1,221.5c4.7,0,9.4-0.1,14.1,0c2.7,0,3.2-0.8,2.1-3.4
		c-4.9-11.9-4.9-11.9-17.6-11.9c-1.9,0-3.8,0.1-5.6,0c-2.3-0.1-3.9,0.7-4.8,2.9c-1.4,3-2.8,5.9-4.4,8.8c-1.4,2.5-1,3.7,2.1,3.6
		C390.7,221.4,395.4,221.5,400.1,221.5z M490.3,221.5c2.2,0,4.4,0,6.6,0c11.5,0,11.6,0,6.3-10.3c-1-1.9-1.4-4.7-3.9-4.8
		c-6.1-0.4-12.4-1.4-18.1,0.4c-3.8,1.2-4.1,6.7-6.2,10.1c-0.2,0.3-0.2,0.6-0.4,0.8c-1.6,2.6-1.3,3.9,2.2,3.8
		C481.3,221.4,485.8,221.5,490.3,221.5z M309.6,221.5c4.7,0,9.4-0.1,14,0c2.8,0.1,3.1-0.8,2-3.3c-5.1-12-5.1-12-17.9-12
		c-1.7,0-3.4,0.1-5.1,0c-2.3-0.1-3.8,0.8-4.8,2.9c-1.4,3-2.9,5.9-4.4,8.8c-1.4,2.5-0.9,3.7,2.2,3.6
		C300.3,221.4,304.9,221.5,309.6,221.5z M400.1,251.6c4.7,0,9.4-0.1,14,0c2.7,0,3.2-0.8,2.2-3.3c-4.7-11.4-4.7-11.4-16.9-11.4
		c-2.3,0-4.7,0-7,0c-1.9,0-3.3,0.7-4.2,2.4c-1.5,3.1-3.1,6.1-4.6,9.2c-1.1,2.2-0.5,3.1,2,3.1C390.4,251.6,395.3,251.6,400.1,251.6z
		 M399.7,281.7c2,0,4.1,0,6.1,0c12.4,0,12.3,0,6.6-11c-1.3-2.5-2.9-3.9-5.8-3.7c-1.9,0.2-3.8,0-5.6,0c-12,0-12,0-16.9,10.8
		c-0.1,0.3-0.3,0.6-0.4,0.8c-1.2,2.2-0.5,3.2,2,3.1C390.3,281.7,395,281.7,399.7,281.7z M490.3,251.6c2.8,0,5.6,0,8.4,0
		c9.6,0,9.6,0,5.2-8.6c-1.1-2.1-1.5-5.4-4.3-5.8c-6.2-0.7-12.6-1.3-18.6,0.2c-3.9,1-4,6.3-6.1,9.5c-0.1,0.1-0.1,0.3-0.2,0.4
		c-1.8,2.9-1.6,4.5,2.4,4.2C481.6,251.4,486,251.6,490.3,251.6z M309.6,281.7c2.5,0,5,0,7.5,0c10.2,0,10.2,0,5.5-9.2
		c-1-2-1.4-5-4.2-5.2c-6.2-0.5-12.7-1.4-18.6,0.3c-3.8,1.1-4.1,6.6-6.2,10c-0.1,0.1-0.1,0.3-0.2,0.4c-1.4,2.5-1,3.7,2.1,3.6
		C300.3,281.6,305,281.7,309.6,281.7z M490.6,281.7c3.1,0,6.2,0,9.4,0c9.2,0,8.7,0.5,4.5-7.6c-1.2-2.4-1.6-6.2-4.6-6.7
		c-6.1-1-12.6-1.2-18.6,0.1c-3.8,0.8-4,6-6,9c-0.3,0.5-0.5,1.1-0.9,1.7c-1.5,2.5-1.1,3.7,2.1,3.6
		C481.2,281.6,485.9,281.7,490.6,281.7z M309.7,236.9c-2,0-4.1,0.1-6.1,0c-3.2-0.3-5.3,0.9-6.6,4c-1.1,2.6-2.5,5.1-3.7,7.6
		c-1,2-1,3.3,1.8,3.3c9.7,0,19.4,0,29.1,0c1.7,0,2.6-0.3,2-2.4C323.2,239.3,320.1,236.9,309.7,236.9z M316.9,304.7
		c0-7.5,0-7.5-6.8-7.6c-7.9,0-7.9,0-7.9,7c0,7.7,0,7.7,7.1,7.7C316.9,311.9,316.9,311.9,316.9,304.7z M399.8,311.9
		c7.5,0,7.5,0,7.5-6.7c0-7.9,0-7.9-6.9-7.9c-7.7,0-7.7,0-7.7,7.1C392.7,311.9,392.7,311.9,399.8,311.9z M490.4,311.9
		c7.3,0,7.3,0,7.3-7c0-7.7,0-7.7-7.1-7.7c-7.5,0-7.5,0-7.5,7.3C483.1,311.9,483.1,311.9,490.4,311.9z"/>
	<path class="st1" d="M400,553.3c-23,0-46.1,0-69.1,0c-14.1,0-20.5-10.8-13.5-22.9c23-39.9,46-79.8,69.1-119.6
		c7.4-12.7,19.7-12.7,27.1,0.1c23.1,39.8,46.1,79.7,69.1,119.6c7,12.1,0.5,22.8-13.6,22.9C446,553.4,423,553.3,400,553.3z
		 M400,537.9c21.3,0,42.6,0,64,0c5.2,0,5.3-0.1,2.6-4.7c-21.3-36.9-42.6-73.8-63.9-110.8c-2.5-4.3-2.9-4.3-5.3,0
		c-21.3,36.9-42.6,73.8-63.9,110.8c-2.7,4.6-2.6,4.7,2.6,4.7C357.4,537.9,378.7,537.9,400,537.9z"/>
	<path class="st1" d="M417.1,489.6c-0.4,1.8-0.6,3.3-1.1,4.8c-2.7,8.7-5.4,17.3-8.2,26c-1.9,5.7-5.7,8.2-10,6.7
		c-4.5-1.6-6.2-5.7-4.6-11.2c1.4-4.8,2.9-9.6,4.5-14.3c1-2.9,0.2-4-2.9-3.9c-1.9,0.1-3.8-0.2-5.6-0.6c-4.7-1.2-7.2-4.9-5.8-9.5
		c2.9-9.9,5.9-19.8,9.1-29.6c1.5-4.5,5.7-6.6,9.6-5.4c4.2,1.3,6.1,5.3,4.7,10.3c-1.3,4.5-2.7,9-4.1,13.5c-1.8,5.9-1.9,5.9,4.2,6
		c3.4,0,6.6,0.4,8.6,3.6C416.4,487,416.7,488.4,417.1,489.6z"/>
</g>
</svg>
