<?xml version="1.0" encoding="utf-8"?>
<!-- Generator: Adobe Illustrator 23.1.1, SVG Export Plug-In . SVG Version: 6.00 Build 0)  -->
<svg version="1.1" id="Camada_1" xmlns="http://www.w3.org/2000/svg" xmlns:xlink="http://www.w3.org/1999/xlink" x="0px" y="0px"
	 viewBox="0 0 800 800" style="enable-background:new 0 0 800 800;" xml:space="preserve">
<style type="text/css">
	.st0{fill:#E99500;}
	.st1{fill:#E99500;stroke:#E99500;stroke-width:8.1914;stroke-miterlimit:10;}
	.st2{fill:#E99500;stroke:#E99500;stroke-width:4.3556;stroke-miterlimit:10;}
</style>
<g>
	<path class="st0" d="M191.6,360.9c2.4-3.8,5.5-6.7,10.2-7.3c2.1-0.3,2.6-1.5,2.6-3.4c-0.1-2.7-0.1-5.4,0-8.1
		c0.3-7,5.3-12.1,11.8-12.1c6.4,0,11.3,5.3,11.4,12.3c0,2.3,0.2,4.6,0,6.9c-0.3,3.2,1,4.3,4.2,4.3c11.7-0.1,23.3-0.1,35-0.1
		c6.5,0,13-0.1,19.5,0.1c3.4,0.1,4.4-1.2,4.4-4.5c-0.1-18.7,0-37.4-0.1-56.1c0-5.6,1.7-10.4,6-14.1c4.9-4.2,10.6-5.5,16.7-3.3
		c6.1,2.2,9.9,6.5,11.1,12.9c0.5,2.5,0.7,5.1,0.7,7.7c0.1,17.5,0,35,0,52.4c0,4.8,2.1,6.6,6.2,4.3c21.3-11.6,41-25.1,52.2-47.7
		c0.2-0.5,0.5-1,0.7-1.5c2.6-5.9,2.6-5.9-3.1-8.5c-4.5-2-7.2-6.6-6.7-11.5c0.4-4.7,3.7-9,8.3-9.9c4-0.7,5.2-2.5,4.8-6.3
		c-0.2-2.3,0.1-4.6,0.5-6.9c1-5.8,5.7-9.7,11.3-9.7c5.8,0,10.4,4.2,11.2,10.2c0.3,1.9,0.4,3.8,0.5,5.7c0.1,6.1,0.1,6.1,6,6.1
		c17.2,0,34.4-0.1,51.6,0.1c3.7,0,4.9-1,4.9-4.8c-0.2-18.4-0.1-36.9-0.1-55.3c0-8.9,4.6-15.7,12-17.9c11.6-3.6,22.4,4.5,22.5,17.3
		c0.1,18.2,0,36.3,0,54.5c0,6.2,0,6.2,6.2,6.2c17.2,0,34.4-0.1,51.6,0.1c4.2,0.1,5.7-1.3,5.2-5.3c-0.2-1.9-0.1-3.8,0-5.7
		c0.2-5.7,4.4-10.2,10.1-11c5.2-0.7,10.6,2.8,12.3,8c1,2.9,1,5.9,0.7,8.9c-0.3,3.4,0.8,4.9,4.4,5.6c8.7,1.7,12.4,10.7,7.6,17.8
		c-2.2,3.2-5.4,4.9-9.3,4.8c-2-0.1-3.4,0.5-3.8,2.7c-5.2,24.1-20.3,41.4-39.1,56.1c-12.6,9.8-26.2,17.8-40.6,24.5
		c-4.1,1.9-5.3,4.3-5.3,8.7c0.1,66,0.1,132,0.1,197.9c0,9.7-3.9,16-11.4,18.8c-11,4-22.1-3.5-23.1-15.7c-0.1-1.8-0.1-3.5-0.1-5.3
		c0-60,0-120,0-180.1c0-1.2-0.1-2.4,0-3.7c0.4-3.5-1.1-3.8-4.1-2.7c-20.2,7.1-40.9,12.6-61.8,17c-5.3,1.1-10.7,1.9-15.9,3
		c-3.3,0.7-4.4-0.3-4.3-3.6c0.1-10.6-0.1-21.1,0.1-31.7c0.1-3.9-0.9-5.5-5.2-5.4c-14.2,0.3-28.5,0.2-42.7,0.1c-5.2,0-9.1,3.1-13.5,5
		c-1,0.4-1.1,1.5-1.1,2.5c0,1.4,0,2.7,0,4.1c0,64.6,0,129.3,0,193.9c0,2.7-0.2,5.4-0.6,8.1c-1.6,8.8-8.8,14.6-18,14.1
		c-8.2-0.4-15.1-7.3-15.8-15.8c-0.1-1.8-0.1-3.5-0.1-5.3c0-60.6,0-121.1,0-181.7c0-5.5,0-5.5-5.3-3.7c-24.6,8.4-49.8,14.8-75.4,19.4
		c-5.2,0.9-5.4,0.8-5.4-4.7c0-10.6,0-21.1,0-31.7c0-2.5-0.4-4-3.4-4.2c-4.6-0.3-7.4-3.5-9.4-7.4
		C191.6,366.4,191.6,363.7,191.6,360.9z M395.5,330.4c10.6-0.7,14.9,3.2,15.5,13.2c0.1,1.1,0.2,2.2,0,3.2c-0.7,4.5,0.8,6.8,5.7,7.5
		c5.2,0.8,8.7,6.2,8.4,11.5c-0.3,5.6-4.4,10.4-9.8,10.7c-3.5,0.2-4.5,1.6-4.2,4.7c0.1,1.6,0.1,3.3,0,4.9c-0.2,2.9,1,3.6,3.6,2.9
		c19-4.5,37.6-10,55.9-16.7c2.1-0.8,2.9-2,2.9-4.2c0-22.7,0-45.5,0-68.2c0-2.5-0.7-3.7-3.4-3.7c-18.8,0.1-37.6,0.1-56.5,0
		c-2.5,0-3.6,1-4.1,3.4c-0.8,4.1-2.1,8.1-3.6,12C403.4,318.2,399.7,324.1,395.5,330.4z M538.9,296.2c-8.8,0-17.6,0.1-26.4-0.1
		c-3.3-0.1-4.5,0.9-4.5,4.4c0.1,17.1,0.1,34.1,0.1,51.2c0,4.3,0.3,4.4,4,2.5c12.4-6.5,24.2-13.9,34.7-23.2
		c9.2-8.2,17-17.4,21.4-29.2c1.9-5.2,1.8-5.5-3.6-5.5C556,296.2,547.5,296.2,538.9,296.2z M273.5,376.7c-12.2,0-24.3-0.1-36.5,0
		c-10.9,0.1-9.2-2.4-9.4,10.2c0,2.4,1.1,2.7,3,2.2C245.1,385.8,259.5,382,273.5,376.7z M373.8,353.1c12.9,1.8,13.2,1.6,13.8-10
		c0.1-0.9,0.1-1.9,0.2-3.5C383.4,344.9,378.6,348.6,373.8,353.1z"/>
</g>
</svg>
