<?xml version="1.0" encoding="utf-8"?>
<!-- Generator: Adobe Illustrator 23.1.1, SVG Export Plug-In . SVG Version: 6.00 Build 0)  -->
<svg version="1.1" id="Camada_1" xmlns="http://www.w3.org/2000/svg" xmlns:xlink="http://www.w3.org/1999/xlink" x="0px" y="0px"
	 viewBox="0 0 800 800" style="enable-background:new 0 0 800 800;" xml:space="preserve">
<style type="text/css">
	.st0{fill:#E99500;}
	.st1{fill:#E99500;stroke:#E99500;stroke-width:8.1914;stroke-miterlimit:10;}
	.st2{fill:#E99500;stroke:#E99500;stroke-width:4.3556;stroke-miterlimit:10;}
</style>
<g>
	<path class="st0" d="M685.4,459.3c-0.4,1.7-1.9,2.2-3.1,2.9c-23,13.3-46,26.6-69,39.9c-68.6,39.6-137.2,79.1-205.7,119
		c-5.8,3.4-9.8,3.1-15.4-0.1c-91.1-52.8-182.3-105.4-273.5-158.1c-1.6-0.9-4.2-1.3-4.1-3.6c0.1-1.9,2.5-2.3,4-3.2
		c91.6-52.9,183.2-105.8,274.7-158.8c4.9-2.8,8.4-2.7,13.2,0.1c91.5,53,183.1,105.9,274.7,158.8
		C682.9,456.9,684.7,457.4,685.4,459.3z M449.4,425.3c-3.2,0.6-6.4,1-9.6,1.8c-14.7,3.7-24.6,14.2-34.4,24.7c-2,2.2-0.1,3.6,1.1,5
		c5.9,7.4,11.8,14.7,17.7,22.1c8.5,10.5,16.9,21.1,26.9,30.3c1.9,1.7,3.4,2.5,5.9,0.8c13.5-9.1,27.6-17.3,42.2-24.5
		c2.8-1.4,2.7-2.4,0.5-4.5c-4.7-4.7-9.4-9.5-13.7-14.6c-10.3-12.4-20.4-25-30.6-37.5C453.8,427,452.3,425,449.4,425.3z M351.6,425.7
		c-3.8-0.9-5.5,1.3-7.4,3.5c-14.7,17.6-28.1,36.4-44.6,52.4c-3.2,3.1,0.3,3.4,1.8,4.2c14,7,27.5,14.9,40.5,23.6
		c3.1,2.1,4.9,1.7,7.5-0.7c16.8-16,29.9-35.3,44.9-52.9c1.8-2.1,0.9-3.5-0.6-5c-4.3-4.2-8.4-8.6-13-12.6
		C372.2,430.9,362.5,426.3,351.6,425.7z M448.1,514.7c-0.5-0.6-0.9-1.4-1.6-2.1c-15.7-14.9-28-32.6-41.8-49.1
		c-4.9-5.8-4.8-5.8-9.8,0.2c-13.6,16.5-25.9,34-41.5,48.8c-2.2,2.1-1.8,3.3,0.5,4.8c14.4,9.6,28.7,19.2,43,28.9
		c2.3,1.6,4,1.2,6.2-0.2c14.2-9.6,28.4-19.1,42.6-28.7C446.6,516.8,447.8,516.3,448.1,514.7z M446.7,419.4
		c-29.5-36-69.7-30.6-93.3,0.3c0.6,0.3,1.2,0.6,1.8,0.7c16.1,2.2,28.1,11.5,38.9,22.6c6.6,6.7,5.1,6.7,11.7,0.1
		c9.6-9.7,19.9-18.4,33.6-21.7C441.7,420.8,444.3,421.1,446.7,419.4z M461.1,426.8c2.1,2.7,3.7,4.7,5.3,6.7
		c11.9,14.8,23.5,29.9,37,43.5c3.4,3.4,6.1,3.7,10.2,1.6c7.5-3.9,15.3-7.3,22.9-11c6.1-3,12.1-6,18.7-9.3
		c-16.2-11-31.7-21.5-47.1-31.9c-1.2-0.8-2.4-0.8-3.7-0.5c-9.5,2.4-19.1,1.6-28.7,1.3C471.1,427.1,466.6,425.8,461.1,426.8z
		 M339.2,426.2c-4.6,0.2-7.7,0.2-10.7,0.5c-10.4,1-20.8,1.5-31.1-0.5c-3.2-0.6-5.5,0.1-8.1,1.8c-13.6,9.3-27.2,18.5-40.9,27.5
		c-3.3,2.2-3.3,3.2,0.3,4.8c13.1,6.2,26.1,12.5,39.1,18.9c3.1,1.5,5.2,1.1,7.7-1.4c9.4-9.5,18.1-19.6,26.4-30
		C327.4,441.1,332.8,434.2,339.2,426.2z M340.4,515.8c-0.3-1.3-1.5-1.7-2.4-2.3c-13.4-8.9-27.5-16.9-41.9-24.1
		c-2.2-1.1-3.8-0.9-5.7,0.7c-11.1,9.6-23.3,17.7-35.9,25.3c-2.7,1.6-2.8,2.6,0,4.2c14,8,28,16.1,41.9,24.2c1.7,1,3.2,1.2,5,0.2
		c12.9-7.7,25.3-16,36.9-25.5C339.1,517.7,340.3,517.1,340.4,515.8z M500.8,545c1.3-0.7,2.6-1.3,3.9-2c13.3-7.6,26.4-15.4,39.8-22.9
		c3.8-2.1,3.6-3.2,0.1-5.3c-12.2-7.2-24-15.1-34.7-24.4c-2.4-2.1-4.3-2-6.9-0.6c-13.8,7-27.2,14.7-40.2,23c-3.4,2.2-3.8,3.5-0.4,6.2
		c11.4,9,23.4,17.1,35.8,24.5C498.9,544.1,499.8,544.5,500.8,545z M393.3,551.8c0-1.5-1-1.9-1.7-2.4c-14.1-9.5-28.2-18.9-42.2-28.4
		c-2-1.4-3.6-1.6-5.6,0.1c-11.1,9.4-23,17.6-35.5,25.1c-3.4,2-2.2,3.1,0.3,4.5c13.9,7.9,27.7,15.9,41.5,23.9c1.9,1.1,3.5,1.2,5.4,0
		c11.9-7.1,23.8-14.2,35.7-21.3C392,553,392.7,552.3,393.3,551.8z M406.6,551.3c0.1,1.5,1.6,1.9,2.6,2.5c11.3,6.8,22.7,13.4,34,20.3
		c3,1.8,5.3,1.4,8.1-0.3c13.1-7.6,26.2-15.1,39.3-22.7c4.4-2.5,4.4-2.6-0.2-5.4c-11.9-7.4-23.5-15.3-34.2-24.4
		c-2.2-1.9-3.8-1.7-6-0.2c-13.9,9.4-27.8,18.7-41.8,28.1C407.8,549.8,406.8,550.1,406.6,551.3z M602.2,486.7
		c-13.8-8.3-26.7-16.1-39.7-24c-1.7-1-3.1-0.3-4.6,0.4c-13.9,6.8-27.8,13.6-41.8,20.2c-3,1.4-3.2,2.5-0.6,4.6
		c11.3,9.2,23.4,17.1,35.9,24.6c1.8,1.1,3.5,1.4,5.5,0.3C571.7,504.3,586.5,495.8,602.2,486.7z M286.2,486.6c0-2.4-1.6-2.6-2.7-3.1
		c-13.9-6.8-27.8-13.5-41.7-20.3c-1.9-0.9-3.5-1.1-5.4,0c-11.8,7.2-23.7,14.2-35.6,21.3c-2.2,1.3-3.1,2.3-0.2,3.9
		c14,8,27.9,16.1,41.9,24.2c2.1,1.2,3.9,1.2,5.9,0c12.5-7.3,24.6-15.3,35.9-24.5C285,487.5,285.8,486.9,286.2,486.6z M198,431.8
		c1,0.9,1.4,1.4,1.9,1.7c12.1,6.8,24.2,13.4,36.2,20.3c2.3,1.3,4,0.5,5.8-0.7c8.4-5.6,16.9-11.1,25.3-16.7c6-4.1,12-8.3,18.8-13
		c-14.2-4.6-26.6-11.1-38.8-17.9c-2.1-1.2-3.8,0.1-5.4,1.1c-7.4,4.2-14.7,8.4-22,12.7C212.6,423.4,205.5,427.5,198,431.8z
		 M513.8,423.5c15.8,10.6,30.3,21.1,45.5,30.5c1.7,1,3,0.6,4.5-0.2c11.7-6.5,23.3-13,35-19.5c2.6-1.4,3.1-2.4,0.2-4.1
		c-13.9-7.9-27.7-15.9-41.5-23.9c-2-1.1-3.7-1.5-5.9-0.3C539.9,412.7,527.9,418.8,513.8,423.5z M454.1,388.4c1.9-0.5,3.4-0.9,5-1.4
		c11.1-3.5,21.4-8.8,31.5-14.3c4.1-2.3,4.1-2.7-0.2-5.1c-13.3-7.7-26.6-15.2-39.8-23c-2.8-1.6-4.9-1.5-7.6,0
		c-10.6,6.1-21.3,12-31.9,18c-1.3,0.8-3.6,0.9-3.4,2.9c0.1,1.5,2.1,1.9,3.4,2.5c13.2,6.4,26.4,12.8,39.6,19.1
		C451.9,387.7,453.1,388.1,454.1,388.4z M345.5,388.5c0.8-0.3,1.6-0.4,2.4-0.8c14.1-6.8,28.1-13.6,42.2-20.4c2.8-1.4,2.4-2.6,0-3.9
		c-11.7-6.5-23.3-13-34.9-19.6c-1.8-1-3.3-0.8-5,0.2c-13.9,8.1-27.9,16.1-41.9,24.1c-2.9,1.7-2.4,2.8,0.2,4.2
		c9.4,5.1,18.9,10.2,29.1,13.7C340.2,386.9,342.9,387.6,345.5,388.5z M399.9,555.3c-1.2,0.5-2.3,0.9-3.2,1.5
		c-11.6,6.9-23.2,13.9-34.8,20.7c-3.1,1.8-2.1,2.8,0.3,4.2c11.6,6.6,23.2,13.3,34.7,20c2.5,1.5,4.5,1,6.8-0.3
		c11.2-6.6,22.5-13.1,33.9-19.5c3.5-1.9,2.9-3,0-4.8c-11.4-6.7-22.6-13.5-34-20.3C402.3,556.2,401.1,555.8,399.9,555.3z
		 M233.1,458.8c-13.7-7.7-26.7-15.1-39.7-22.4c-1.7-1-3.1-0.2-4.5,0.6c-11.7,6.8-23.3,13.6-35.1,20.3c-2.8,1.6-2.9,2.5,0,4.1
		c9.1,5.1,18,10.4,27.1,15.6c13.3,7.6,8.5,7.5,21.5,0.1C212.6,471.3,222.5,465.1,233.1,458.8z M566.6,458.8
		c13.7,8.1,26.5,15.7,39.4,23.3c1.6,1,3,0.6,4.5-0.3c11.8-6.9,23.7-13.7,35.6-20.5c2.2-1.3,3.2-2.2,0.2-3.8
		c-11.9-6.8-23.7-13.7-35.5-20.5c-1.7-1-3.1-1.3-5-0.3C593.1,443.9,580.4,451.1,566.6,458.8z M461.1,392.3
		c16.3,7.8,30.6,16.5,44.6,25.7c2,1.3,4,0.9,6.1,0.2c11.9-3.6,22.9-9.2,33.8-15.2c2.9-1.6,2.2-2.5-0.2-3.9c-14-8-28-16.1-41.9-24.2
		c-1.9-1.1-3.5-1.2-5.4-0.1C486.6,381.6,474.9,387.6,461.1,392.3z M338.5,392.3c-14.1-5-25.9-11.1-37.4-17.8c-1.7-1-3.1-0.5-4.5,0.4
		c-14.1,8.2-28.1,16.3-42.3,24.4c-2.8,1.6-2.2,2.5,0.2,3.9c8.1,4.5,16.6,8.3,24.9,12.2c8.4,3.9,15.7,4.2,22.7-2.4
		c0.8-0.8,1.9-1.2,2.9-1.8C315.3,404.4,326.2,398.6,338.5,392.3z M440,339.1c-0.3-1.1-1.3-1.4-2.1-1.9
		c-11.7-6.7-23.4-13.5-35.1-20.3c-2.3-1.4-4.2-1-6.3,0.3c-11.4,6.7-22.8,13.3-34.2,19.8c-3.2,1.8-2.8,2.9,0,4.5
		c11.7,6.5,23.3,13,35,19.5c1.7,1,3.3,1.2,5,0.2c11.9-6.7,23.9-13.3,35.8-20C438.9,340.6,439.9,340.3,440,339.1z M443,391.4
		c0-0.5,0-1,0-1.6c-13.6-6.7-27.2-13.3-40.7-20.1c-2.3-1.1-4-0.2-5.9,0.7c-9.8,4.8-19.6,9.7-29.4,14.5c-3.4,1.7-6.9,3.2-10.3,4.9
		c0.1,0.6,0.2,1.2,0.3,1.8C385.6,388.3,414.3,388.8,443,391.4z M430.3,397.1c8.6,6.2,15.2,12.1,21,19c2.4,2.8,5.1,4,8.8,4.1
		c5.5,0.1,11,1.2,16.5,1.5c7.2,0.3,14.4,1,21.7-0.6c-0.4-0.8-0.4-1.2-0.6-1.3c-13.5-8.9-27.5-16.8-42-23.8c-1.5-0.7-3.1-1.1-4.7-0.8
		C444.7,396.2,438.3,397,430.3,397.1z M301.2,420.3c1.6,1.5,3.1,1.5,4.6,1.6c10.1,0.5,20.2-1.1,30.2-1.2c7.4-0.1,12.2-3.3,16.2-8.8
		c1.3-1.8,3.2-3.3,4.9-4.7c3.8-3.3,7.7-6.5,12.1-10.2c-6.6,0.1-12.4-0.6-18.2-1.6c-2.3-0.4-4.5-0.7-6.7,0.4
		C329.5,402.9,315.2,410.9,301.2,420.3z"/>
</g>
</svg>
