<?xml version="1.0" encoding="utf-8"?>
<!-- Generator: Adobe Illustrator 23.1.1, SVG Export Plug-In . SVG Version: 6.00 Build 0)  -->
<svg version="1.1" id="Camada_1" xmlns="http://www.w3.org/2000/svg" xmlns:xlink="http://www.w3.org/1999/xlink" x="0px" y="0px"
	 viewBox="0 0 800 800" style="enable-background:new 0 0 800 800;" xml:space="preserve">
<style type="text/css">
	.st0{fill:#E99500;}
	.st1{fill:#E99500;stroke:#E99500;stroke-width:8.1914;stroke-miterlimit:10;}
	.st2{fill:#E99500;stroke:#E99500;stroke-width:4.3556;stroke-miterlimit:10;}
</style>
<g>
	<path class="st0" d="M144.2,538.4c5-20.1,17-33.6,37.3-38.9c9.9-2.6,20.2-1.1,30.3-1.3c9.7-0.2,9.2,1.1,9.2-9.1
		c0-95.5,0-191,0-286.5c0-15.2,3.9-28.9,15.2-39.8c10-9.6,22-14,35.7-14c72.9,0,145.7,0,218.6,0c28.3,0,56.6-0.1,84.8,0
		c24.7,0.1,44,18.9,44.9,43.6c0.8,23-19,44.1-42.1,44.7c-7,0.2-14,0.2-21,0c-3.5-0.1-4.8,1.3-4.7,4.7c0.1,7.8,0,15.6,0,23.5
		c0,68,0,136.1,0,204.1c0,2.1,0,4.3,0,6.4c2.7,0.5,3.5-1.6,4.7-2.7c10.5-10.4,20.8-21.1,31.5-31.3c11.2-10.7,24.6-14.4,39.6-9.6
		c14.5,4.6,23.6,14.7,26.7,29.6c2.6,12.8-0.5,24.5-9.4,34.2c-3.6,3.9-7.4,7.7-11.3,11.3c-2.5,2.3-2.7,4.1-0.1,6.5
		c5.2,4.9,10.2,10,15.2,15.2c6.5,6.7,6.5,11.7-0.2,18.4c-14.1,14.1-28.3,28.1-42.3,42.4c-3.3,3.4-5.5,3.2-8.3-0.2
		c-2-2.4-4.3-4.7-6.7-6.7c-3.1-2.6-2.7-4.6,0.1-7.3c11.4-11.2,22.6-22.6,34-33.8c2.7-2.7,3-4.3,0.1-7.2c-9.6-9.5-9.5-9.6-19.1,0
		c-29.9,29.9-59.8,59.7-89.6,89.7c-3.6,3.6-7.7,6.1-12.6,7.7c-18,5.9-36,11.9-54,17.9c-4.7,1.6-9.1,2.1-13-1.8
		c-3.9-3.8-3.5-8.2-1.9-13c3.9-11.3,7.5-22.7,11.4-34.1c1.2-3.5,0.6-5-3.3-4.9c-3.2,0.1-6.3,0-9.5,0c-78,0-156-0.5-234.1,0.3
		c-31.2,0.3-50.9-16.3-56.4-40.4C144.2,550.4,144.2,544.4,144.2,538.4z M531.5,332.1c0-52.1,0-104.1,0-156.2c0-6.6,0-6.6-6.6-6.6
		c-84.2,0-168.3,0-252.5,0c-2.2,0-4.3,0.1-6.5,0.4c-13.2,2-24.1,13.5-24,30.2c0.3,96.1,0.1,192.3,0.1,288.4c0,6.7,0,6.7,7.1,6.7
		c91.6,0,183.3,0,274.9,0c7.5,0,7.5,0,7.5-7.3C531.5,435.9,531.5,384,531.5,332.1z M324.8,518.7c-43.7,0-87.5,0-131.2,0
		c-9.8,0-18,3.5-23.7,11.5c-6.9,9.4-7.7,19.8-2.4,30.1c5.6,11,15.4,15.6,27.5,15.6c85.3,0,170.6,0,255.9,0c7,0,9.5-3.7,7-10.2
		c-5.7-14.5-4.8-28.6,2.6-42.3c2.6-4.7,2.6-4.8-2.9-4.8C413.3,518.7,369.1,518.7,324.8,518.7z M601.3,510.4
		c-0.6-0.7-1.3-1.6-2.1-2.4c-6.8-6.8-13.8-13.5-20.4-20.5c-2.6-2.8-4.3-2.5-6.9,0.1c-7.3,7.5-14.8,14.9-22.2,22.3
		c-21.9,21.9-43.7,43.8-65.7,65.6c-3.1,3.1-3.2,5,0,8c6.9,6.5,13.5,13.3,20.2,20.1c1.9,2,3.2,2.1,5.3,0c29.9-30.1,60-60,89.9-90
		C600.2,512.7,601.3,512,601.3,510.4z M552.5,193.2c0,6.1,0.2,12.3-0.1,18.4c-0.1,4,1.5,5.3,5.3,5.1c6.1-0.2,12.3,0,18.4-0.1
		c13.2-0.3,23-10,23.2-23c0.2-13.4-9.2-23.6-22.6-24.2c-6.6-0.3-13.3,0-19.9-0.1c-3.3-0.1-4.4,1.4-4.4,4.5
		C552.6,180.2,552.5,186.7,552.5,193.2z M635.2,470.7c0-8.9-3.7-14.5-10.5-17.9c-7.1-3.4-14-2.6-20.1,2.3
		c-4.3,3.6-8.1,7.9-12.1,11.8c-1.8,1.8-1.8,3.3,0,5.1c7.3,7.2,14.6,14.5,21.8,21.9c1.9,2,3.2,1.5,4.9-0.3c3.5-3.7,7.3-7.2,10.8-11
		C633.5,479,635.4,474.7,635.2,470.7z M510.7,520c-0.3-0.4-0.5-0.8-0.8-1.3c-2.5,0-5-0.1-7.4,0c-16.7,0.5-29.2,14.7-27.6,31.3
		c0.1,1.1-0.2,2.6,1.1,3.1c1.3,0.5,2.1-0.8,2.8-1.6c4.3-4.2,8.5-8.5,12.7-12.7C497.9,532.5,504.3,526.2,510.7,520z M461.2,625
		c8.6-2.9,16.1-5.4,23.6-7.9c2.6-0.9,1.9-2.1,0.5-3.5c-4.2-4.2-8.4-8.4-12.6-12.6c-1.7-1.8-2.9-2-3.7,0.7
		C466.5,609.1,464,616.4,461.2,625z"/>
	<path class="st0" d="M386.8,382.9c-33.3,0-66.6,0-99.8,0c-7.3,0-7.3,0-7.3-7c0-13.5,0-13.5,13.3-13.5c64.4,0,128.8,0,193.2,0
		c7.8,0,7.8,0,7.8,7.5c0,13,0,13-12.8,13C449.6,382.9,418.2,382.9,386.8,382.9z"/>
	<path class="st0" d="M386.8,344c-33.4,0-66.9,0-100.3,0c-6.8,0-6.8,0-6.8-7c-0.1-13.5-0.1-13.5,13.3-13.5c64.4,0,128.8,0,193.2,0
		c7.8,0,7.8,0,7.8,8c0,12.5,0,12.5-12.3,12.5C450,344,418.4,344,386.8,344z"/>
	<path class="st0" d="M386.8,305.1c-33.4,0-66.9,0-100.3,0c-6.8,0-6.8,0-6.8-7c-0.1-13.5-0.1-13.5,13.3-13.5c64.2,0,128.4,0,192.7,0
		c8.3,0,8.3,0,8.3,8.1c0,12.5,0,12.5-12.3,12.5C450,305.1,418.4,305.1,386.8,305.1z"/>
	<path class="st0" d="M386.7,266.2c-22,0-39.2-17.2-39.2-39.2c0-21.8,17.5-39.3,39.3-39.3c21.7,0,39.2,17.5,39.2,39.4
		C426,248.9,408.7,266.2,386.7,266.2z M386.6,245.7c10.6,0,18.8-8,18.9-18.4c0.1-10.6-8.3-19.1-18.8-19.1
		c-10.3,0-18.6,8.4-18.6,18.8C368,237.5,376.1,245.6,386.6,245.7z"/>
	<path class="st0" d="M454.7,440.9c-11.3,0-22.6-0.1-33.9,0.1c-4.2,0.1-5.4-1.5-5.4-5.5c-0.1-15-0.2-15,14.9-15c19,0,37.9,0,56.9,0
		c6.7,0,6.8,0.1,6.8,6.6c0.1,13.9,0.1,13.9-13.8,13.9C471.6,440.9,463.1,440.9,454.7,440.9z"/>
	<path class="st0" d="M474,479.8c-5,0-9.9-0.1-14.9,0c-3.3,0.1-4.9-1-4.8-4.5c0.2-3.8,0.1-7.6,0-11.4c-0.1-3.1,1-4.6,4.3-4.6
		c10.3,0.1,20.5,0.1,30.8,0c3.1,0,4.6,1.1,4.5,4.3c-0.1,4-0.1,8,0,11.9c0.1,3.3-1.5,4.3-4.5,4.3C484.2,479.7,479.1,479.8,474,479.8z
		"/>
	<path class="st0" d="M454.4,237.2c-10.8-0.1-10,1.2-10-9.8c0-11.8-1.3-10.7,10.5-10.7c11,0,10-0.8,10,9.8
		C464.9,238.6,466.2,237.1,454.4,237.2z"/>
	<path class="st0" d="M318.6,237.2c-11.1-0.1-10,1.2-10-10.2c0-11.3-1.2-10.3,10.5-10.3c11.1,0,10-0.9,10,10.3
		C329.1,238.6,330.1,237.1,318.6,237.2z"/>
</g>
</svg>
