<?xml version="1.0" encoding="utf-8"?>
<!-- Generator: Adobe Illustrator 23.1.1, SVG Export Plug-In . SVG Version: 6.00 Build 0)  -->
<svg version="1.1" id="Layer_1" xmlns="http://www.w3.org/2000/svg" xmlns:xlink="http://www.w3.org/1999/xlink" x="0px" y="0px"
	 viewBox="0 0 118 72" style="enable-background:new 0 0 118 72;" xml:space="preserve">
<style type="text/css">
	.st0{fill:#FFFFFF;}
</style>
<g>
	<path class="st0" d="M16.8,15.9v8.4h-1.3l-4.6-5.7v5.7H9.4v-8.4h1.3l4.6,5.7v-5.7C15.3,15.9,16.8,15.9,16.8,15.9z"/>
	<path class="st0" d="M26.4,17.9v6.4H25v-0.8c-0.5,0.6-1.2,0.9-2.1,0.9c-1.6,0-2.8-0.9-2.8-2.8v-3.7h1.5v3.5c0,1.2,0.6,1.7,1.5,1.7
		c1,0,1.8-0.6,1.8-1.9V18h1.5V17.9z M23.6,17h-1.3l1.6-1.6h1.8L23.6,17z"/>
	<path class="st0" d="M40.4,20.7v3.7h-1.5v-3.5c0-1.1-0.5-1.7-1.4-1.7c-1,0-1.7,0.6-1.7,1.9v3.2h-1.5v-3.5c0-1.1-0.5-1.7-1.4-1.7
		c-1,0-1.7,0.6-1.7,1.9v3.2h-1.5v-6.4h1.4v0.8c0.5-0.6,1.2-0.9,2.1-0.9s1.7,0.3,2.2,1.1c0.5-0.7,1.4-1.1,2.4-1.1
		C39.3,17.8,40.4,18.7,40.4,20.7z"/>
	<path class="st0" d="M49.6,21.6h-5c0.2,0.9,1,1.5,2.1,1.5c0.7,0,1.3-0.2,1.7-0.7l0.8,0.9c-0.6,0.7-1.5,1-2.6,1
		c-2.2,0-3.5-1.4-3.5-3.3s1.4-3.3,3.3-3.3c1.9,0,3.2,1.3,3.2,3.3C49.7,21.3,49.6,21.5,49.6,21.6z M44.6,20.6h3.6
		c-0.1-0.9-0.8-1.6-1.8-1.6C45.4,19,44.7,19.7,44.6,20.6z"/>
	<path class="st0" d="M56.1,17.8v1.4c-0.1,0-0.2,0-0.3,0c-1.1,0-1.9,0.7-1.9,2v3.1h-1.5v-6.4h1.4v0.9C54.2,18.2,55,17.8,56.1,17.8z"
		/>
	<path class="st0" d="M58.2,21.1c0-1.9,1.4-3.3,3.4-3.3s3.4,1.4,3.4,3.3s-1.4,3.3-3.4,3.3S58.2,23,58.2,21.1z M63.5,21.1
		c0-1.2-0.8-2-1.9-2c-1.1,0-1.9,0.8-1.9,2s0.8,2,1.9,2S63.5,22.3,63.5,21.1z"/>
	<path class="st0" d="M67,23.7l0.6-1.1c0.6,0.4,1.4,0.6,2.2,0.6c1,0,1.3-0.3,1.3-0.7c0-1.2-4-0.1-4-2.6c0-1.2,1.1-2,2.8-2
		c0.9,0,1.8,0.2,2.4,0.6l-0.6,1.1c-0.6-0.4-1.2-0.5-1.8-0.5c-0.9,0-1.3,0.3-1.3,0.7c0,1.3,4,0.1,4,2.7c0,1.2-1.1,2-2.9,2
		C68.7,24.4,67.6,24.1,67,23.7z"/>
	<path class="st0" d="M86.1,15.4v8.9h-1.4v-0.8c-0.5,0.6-1.3,0.9-2.1,0.9c-1.9,0-3.2-1.3-3.2-3.3s1.4-3.3,3.2-3.3
		c0.8,0,1.6,0.3,2.1,0.9v-3.3C84.7,15.4,86.1,15.4,86.1,15.4z M84.6,21.1c0-1.2-0.8-2-1.9-2s-1.9,0.8-1.9,2s0.8,2,1.9,2
		S84.6,22.3,84.6,21.1z"/>
	<path class="st0" d="M95.3,21.6h-5c0.2,0.9,1,1.5,2.1,1.5c0.7,0,1.3-0.2,1.7-0.7l0.8,0.9c-0.6,0.7-1.5,1-2.6,1
		c-2.2,0-3.5-1.4-3.5-3.3s1.4-3.3,3.3-3.3s3.2,1.3,3.2,3.3C95.4,21.3,95.4,21.5,95.3,21.6z M90.3,20.6h3.6c-0.1-0.9-0.8-1.6-1.8-1.6
		S90.4,19.7,90.3,20.6z"/>
</g>
<g>
	<path class="st0" d="M30.1,47.6v6.8H9.2V49l9.4-8.7c1.8-1.7,2-2.7,2-3.6c0-1.3-0.9-2-2.5-2s-3,0.9-3.8,2.4l-6.6-3.3
		c1.9-3.6,5.6-6,11.2-6c6.2,0,10.5,3.2,10.5,8.1c0,2.6-0.7,4.8-4.5,8.3l-3.7,3.4C21.2,47.6,30.1,47.6,30.1,47.6z"/>
	<path class="st0" d="M31.8,41.4c0-8.6,4.9-13.5,11.8-13.5s11.8,5,11.8,13.5c0,8.6-4.9,13.5-11.8,13.5S31.8,50,31.8,41.4z
		 M46.6,41.4c0-5-1.3-6.5-3-6.5s-3,1.6-3,6.5c0,5,1.3,6.5,3,6.5S46.6,46.4,46.6,41.4z"/>
	<path class="st0" d="M69.8,28.4v25.9H61V35h-4.5v-6.6H69.8z"/>
	<path class="st0" d="M95.4,40.6C95.4,49.7,89.6,55,81,55c-3.1,0-6.1-0.7-8-2l3.2-6.1c1.5,1.1,3.1,1.4,4.7,1.4c3,0,5-1.5,5.6-4.4
		c-1.3,0.9-3,1.4-5.2,1.4c-4.7,0-8.9-3.2-8.9-8.3c0-5.6,4.7-9.1,10.5-9.1C90.3,27.8,95.4,32.1,95.4,40.6z M86.2,36.5
		c0-1.6-1.1-2.6-2.7-2.6s-2.7,1-2.7,2.6s1.1,2.7,2.7,2.7S86.2,38.1,86.2,36.5z"/>
</g>
</svg>
