<?xml version="1.0" encoding="utf-8"?>
<!-- Generator: Adobe Illustrator 23.1.1, SVG Export Plug-In . SVG Version: 6.00 Build 0)  -->
<svg version="1.1" id="Layer_1" xmlns="http://www.w3.org/2000/svg" xmlns:xlink="http://www.w3.org/1999/xlink" x="0px" y="0px"
	 viewBox="0 0 418 72" style="enable-background:new 0 0 418 72;" xml:space="preserve">
<style type="text/css">
	.st0{fill:#FFFFFF;}
	.st1{fill:none;stroke:#FFFFFF;stroke-width:0.55;stroke-miterlimit:10;}
	.st2{fill:none;stroke:#FFFFFF;stroke-width:0.75;stroke-miterlimit:10;}
	.st3{fill:none;stroke:#FFFFFF;stroke-width:0.4;stroke-miterlimit:10;}
	.st4{fill:none;stroke:#FFFFFF;stroke-miterlimit:10;}
</style>
<g>
	<path class="st0" d="M18.8,17.9V41H11V23.8H7v-5.9H18.8z"/>
	<path class="st0" d="M21.6,29.5c0-7.7,4.4-12.1,10.5-12.1s10.5,4.4,10.5,12.1s-4.4,12.1-10.5,12.1S21.6,37.1,21.6,29.5z M34.7,29.5
		c0-4.5-1.1-5.8-2.6-5.8s-2.6,1.4-2.6,5.8c0,4.5,1.1,5.8,2.6,5.8C33.6,35.3,34.7,33.9,34.7,29.5z"/>
	<path class="st0" d="M86.2,30.7V41h-7.5v-9c0-2.2-0.8-3.1-2-3.1c-1.3,0-2.3,0.9-2.3,3.3V41h-7.5v-9c0-2.2-0.8-3.1-2-3.1
		c-1.3,0-2.3,0.9-2.3,3.3V41h-7.5V23h7.1v1.7c1.4-1.4,3.1-2,5.1-2c2.3,0,4.4,0.9,5.6,2.7c1.5-1.7,3.6-2.7,6-2.7
		C83.1,22.6,86.2,25.1,86.2,30.7z"/>
	<path class="st0" d="M88.6,17.7c0-2.1,1.7-3.8,4.5-3.8c2.7,0,4.5,1.5,4.5,3.7c0,2.3-1.7,3.9-4.5,3.9C90.4,21.5,88.6,19.9,88.6,17.7
		z M89.4,23h7.5v18h-7.5V23z"/>
	<path class="st0" d="M100.2,16.5h7.5V41h-7.5V16.5z"/>
</g>
<g>
	<path class="st0" d="M14.5,52.2c0,1.7-1.3,2.8-3.3,2.8H9.6v2.1H7.8v-7.7h3.3C13.2,49.4,14.5,50.4,14.5,52.2z M12.7,52.2
		c0-0.8-0.5-1.3-1.6-1.3H9.6v2.7h1.5C12.1,53.5,12.7,53,12.7,52.2z"/>
	<path class="st0" d="M15.4,53.2c0-2.3,1.8-4,4.2-4s4.2,1.7,4.2,4s-1.8,4-4.2,4C17.1,57.2,15.4,55.5,15.4,53.2z M22,53.2
		c0-1.5-1-2.5-2.4-2.5s-2.4,1-2.4,2.5s1,2.5,2.4,2.5C20.9,55.7,22,54.7,22,53.2z"/>
	<path class="st0" d="M24.5,56.3l0.6-1.3c0.6,0.5,1.6,0.8,2.5,0.8c1.1,0,1.5-0.4,1.5-0.8c0-1.4-4.5-0.5-4.5-3.3
		c0-1.3,1.1-2.4,3.2-2.4c1,0,2,0.2,2.7,0.7L30,51.4c-0.7-0.4-1.5-0.6-2.1-0.6c-1.1,0-1.5,0.4-1.5,0.9c0,1.4,4.5,0.4,4.5,3.3
		c0,1.3-1.1,2.4-3.3,2.4C26.4,57.2,25.2,56.8,24.5,56.3z"/>
	<path class="st0" d="M33.7,50.8h-2.5v-1.5h6.7v1.5h-2.5V57h-1.8v-6.2H33.7z"/>
	<path class="st0" d="M44.9,55.6V57h-6v-7.7h5.8v1.4h-4v1.7h3.6v1.4h-3.6v1.8C40.7,55.6,44.9,55.6,44.9,55.6z"/>
	<path class="st0" d="M45.7,56.3l0.6-1.3c0.6,0.5,1.6,0.8,2.5,0.8c1.1,0,1.5-0.4,1.5-0.8c0-1.4-4.5-0.5-4.5-3.3
		c0-1.3,1.1-2.4,3.2-2.4c1,0,2,0.2,2.7,0.7l-0.5,1.4c-0.7-0.4-1.5-0.6-2.1-0.6c-1.1,0-1.5,0.4-1.5,0.9c0,1.4,4.5,0.4,4.5,3.3
		c0,1.3-1.1,2.4-3.3,2.4C47.6,57.2,46.4,56.8,45.7,56.3z"/>
</g>
<g>
	<path class="st0" d="M55.1,50.8c0-0.2,0.2-0.5,0.5-0.5s0.5,0.2,0.5,0.4c0,0.3-0.2,0.5-0.5,0.5C55.3,51.3,55.1,51.1,55.1,50.8z
		 M55.2,52.3h0.6V57h-0.6V52.3z"/>
	<path class="st0" d="M65.4,54.3V57h-0.6v-2.7c0-1-0.5-1.5-1.4-1.5c-1,0-1.6,0.6-1.6,1.7V57h-0.6v-2.7c0-1-0.5-1.5-1.4-1.5
		c-1,0-1.6,0.6-1.6,1.7V57h-0.6v-4.7h0.6v0.9c0.3-0.6,0.9-0.9,1.7-0.9s1.4,0.3,1.7,1c0.3-0.6,1-1,1.9-1C64.7,52.3,65.4,53,65.4,54.3
		z"/>
	<path class="st0" d="M72,54.7c0,1.4-1,2.4-2.4,2.4c-0.8,0-1.4-0.3-1.8-0.9v2.6h-0.6v-6.5h0.6v0.9c0.4-0.6,1-1,1.8-1
		C71,52.3,72,53.3,72,54.7z M71.3,54.7c0-1.1-0.8-1.8-1.8-1.8s-1.8,0.7-1.8,1.8s0.8,1.8,1.8,1.8C70.6,56.5,71.3,55.8,71.3,54.7z"/>
	<path class="st0" d="M73.3,50.4h0.6v6.7h-0.6V50.4z"/>
	<path class="st0" d="M79.3,54.1V57h-0.6v-0.7c-0.3,0.5-0.8,0.8-1.6,0.8c-1.1,0-1.7-0.6-1.7-1.4c0-0.7,0.5-1.3,1.8-1.3h1.5v-0.3
		c0-0.8-0.5-1.3-1.3-1.3c-0.6,0-1.2,0.2-1.6,0.6l-0.3-0.5c0.5-0.4,1.2-0.6,1.9-0.6C78.6,52.3,79.3,52.9,79.3,54.1z M78.6,55.6v-0.8
		h-1.5c-0.9,0-1.2,0.4-1.2,0.8c0,0.5,0.4,0.9,1.2,0.9C77.8,56.6,78.4,56.3,78.6,55.6z"/>
	<path class="st0" d="M85.4,54.3V57h-0.6v-2.7c0-1-0.5-1.5-1.4-1.5c-1,0-1.7,0.6-1.7,1.7V57H81v-4.7h0.6v0.9c0.3-0.6,1-0.9,1.8-0.9
		C84.6,52.3,85.4,53,85.4,54.3z"/>
	<path class="st0" d="M89.6,56.8c-0.3,0.2-0.6,0.3-1,0.3c-0.9,0-1.4-0.5-1.4-1.4v-2.9h-0.8v-0.5h0.8v-1h0.6v1h1.4v0.5h-1.4v2.8
		c0,0.6,0.3,0.9,0.8,0.9c0.3,0,0.5-0.1,0.7-0.2L89.6,56.8z"/>
	<path class="st0" d="M94.3,54.1V57h-0.6v-0.7c-0.3,0.5-0.8,0.8-1.6,0.8c-1.1,0-1.7-0.6-1.7-1.4c0-0.7,0.5-1.3,1.8-1.3h1.5v-0.3
		c0-0.8-0.5-1.3-1.3-1.3c-0.6,0-1.2,0.2-1.6,0.6l-0.3-0.5c0.5-0.4,1.2-0.6,1.9-0.6C93.6,52.3,94.3,52.9,94.3,54.1z M93.7,55.6v-0.8
		h-1.5c-0.9,0-1.2,0.4-1.2,0.8c0,0.5,0.4,0.9,1.2,0.9C92.9,56.6,93.4,56.3,93.7,55.6z"/>
	<path class="st0" d="M100.4,50.4v6.7h-0.6v-0.9c-0.4,0.6-1,1-1.8,1c-1.4,0-2.4-1-2.4-2.4s1-2.4,2.4-2.4c0.8,0,1.4,0.3,1.8,0.9v-2.8
		L100.4,50.4L100.4,50.4z M99.8,54.7c0-1.1-0.8-1.8-1.8-1.8s-1.8,0.7-1.8,1.8s0.8,1.8,1.8,1.8S99.8,55.8,99.8,54.7z"/>
	<path class="st0" d="M101.7,54.7c0-1.4,1-2.4,2.4-2.4s2.4,1,2.4,2.4s-1,2.4-2.4,2.4C102.7,57.1,101.7,56.1,101.7,54.7z M105.9,54.7
		c0-1.1-0.7-1.8-1.8-1.8s-1.8,0.7-1.8,1.8s0.8,1.8,1.8,1.8S105.9,55.8,105.9,54.7z"/>
	<path class="st0" d="M107.1,56.5l0.3-0.5c0.4,0.3,1,0.5,1.7,0.5c0.9,0,1.3-0.3,1.3-0.8c0-1.2-3.1-0.3-3.1-2.1
		c0-0.8,0.7-1.4,1.9-1.4c0.6,0,1.3,0.2,1.7,0.4l-0.3,0.5c-0.4-0.3-0.9-0.4-1.4-0.4c-0.9,0-1.2,0.3-1.2,0.8c0,1.3,3.1,0.3,3.1,2.1
		c0,0.8-0.7,1.4-2,1.4C108.3,57.1,107.5,56.9,107.1,56.5z"/>
	<path class="st0" d="M111.8,52.8c0-0.3,0.2-0.5,0.5-0.5s0.5,0.2,0.5,0.5s-0.2,0.5-0.5,0.5S111.8,53.1,111.8,52.8z M112.8,56.6
		c0,0.2,0,0.3-0.1,0.5l-0.4,1.2h-0.4l0.3-1.3c-0.2-0.1-0.3-0.2-0.3-0.5s0.2-0.5,0.5-0.5C112.6,56.1,112.8,56.3,112.8,56.6z"/>
</g>
<polygon class="st1" points="6.9,57.9 6.9,57.9 51.6,57.9 "/>
<g>
	<path class="st0" d="M163.1,37.1H160v4h-7.6v-4h-12v-5l9.8-14.2h8L149.6,31h3.1v-3.5h7.3V31h3.1V37.1z"/>
	<path class="st0" d="M183.7,17.9v4.8L176,41h-8.5l7.3-17.1h-4.5v3.4h-6.4v-9.4H183.7z"/>
	<path class="st0" d="M185.5,29.5c0-7.7,4.4-12.1,10.5-12.1s10.5,4.4,10.5,12.1s-4.4,12.1-10.5,12.1
		C189.8,41.6,185.5,37.1,185.5,29.5z M198.6,29.5c0-4.5-1.1-5.8-2.6-5.8s-2.6,1.4-2.6,5.8c0,4.5,1.1,5.8,2.6,5.8
		S198.6,33.9,198.6,29.5z"/>
	<path class="st0" d="M227.6,35.5l-1.2,1.3V41h-7.5V16.5h7.5v11.7l5.2-5.2h8.8l-7.5,7.8L241,41h-9L227.6,35.5z"/>
	<path class="st0" d="M273.5,30.7V41H266v-9c0-2.2-0.8-3.1-2-3.1c-1.3,0-2.3,0.9-2.3,3.3V41h-7.5v-9c0-2.2-0.8-3.1-2-3.1
		c-1.3,0-2.3,0.9-2.3,3.3V41h-7.5V23h7.1v1.7c1.4-1.4,3.1-2,5.1-2c2.3,0,4.4,0.9,5.6,2.7c1.5-1.7,3.6-2.7,6-2.7
		C270.4,22.6,273.5,25.1,273.5,30.7z"/>
</g>
<g>
	<path class="st0" d="M145.9,49.4v7.7h-1v-0.9c-0.4,0.6-1.2,0.9-2,0.9c-1.6,0-2.8-1.1-2.8-2.8s1.2-2.8,2.8-2.8
		c0.8,0,1.5,0.3,1.9,0.9v-3C144.8,49.4,145.9,49.4,145.9,49.4z M144.9,54.3c0-1.2-0.8-1.9-1.8-1.9c-1.1,0-1.9,0.8-1.9,1.9
		c0,1.2,0.8,1.9,1.9,1.9C144.1,56.2,144.9,55.5,144.9,54.3z"/>
	<path class="st0" d="M152.7,54.6h-4.5c0.1,1,0.9,1.6,2,1.6c0.6,0,1.2-0.2,1.6-0.7l0.5,0.6c-0.5,0.6-1.3,0.9-2.2,0.9
		c-1.8,0-3-1.2-3-2.8s1.2-2.8,2.8-2.8c1.6,0,2.7,1.1,2.7,2.8C152.7,54.4,152.7,54.5,152.7,54.6z M148.2,53.9h3.5
		c-0.1-0.9-0.8-1.6-1.8-1.6C149.1,52.3,148.4,53,148.2,53.9z"/>
</g>
<g>
	<path class="st0" d="M164.6,57.1l-2-2.9h-0.1h-2.1v2.9H158V46.6h4.5c2.8,0,4.6,1.5,4.6,3.8c0,1.6-0.8,2.7-2.2,3.3l2.4,3.4H164.6z
		 M162.3,48.5h-2v3.7h2c1.5,0,2.2-0.7,2.2-1.8C164.5,49.2,163.8,48.5,162.3,48.5z"/>
	<path class="st0" d="M178.5,57.1v-6.3l-3.1,5.2h-1.1l-3.1-5.1v6.2h-2.3V46.6h2l3.9,6.5l3.9-6.5h2v10.5H178.5z"/>
	<path class="st0" d="M185.4,48.5H182v-2h9.2v2h-3.4V57h-2.4L185.4,48.5L185.4,48.5z"/>
</g>
<g>
	<path class="st0" d="M194.5,49.4h0.7v7.7h-0.7V49.4z"/>
	<path class="st0" d="M201.5,53.7v3.4h-0.7v-0.9c-0.3,0.6-1,0.9-1.9,0.9c-1.2,0-2-0.6-2-1.6c0-0.8,0.5-1.5,2.1-1.5h1.7v-0.3
		c0-0.9-0.5-1.4-1.5-1.4c-0.7,0-1.4,0.2-1.8,0.6l-0.3-0.5c0.5-0.5,1.4-0.7,2.2-0.7C200.7,51.6,201.5,52.3,201.5,53.7z M200.7,55.4
		v-0.9H199c-1.1,0-1.4,0.4-1.4,1s0.5,1,1.4,1C199.8,56.5,200.4,56.1,200.7,55.4z"/>
	<path class="st0" d="M208.5,53.9v3.2h-0.7V54c0-1.2-0.6-1.7-1.6-1.7c-1.2,0-1.9,0.7-1.9,2v2.9h-0.7v-5.5h0.7v1c0.4-0.7,1.1-1,2.1-1
		C207.6,51.6,208.5,52.3,208.5,53.9z"/>
	<path class="st0" d="M214.3,55.7l0.5,0.4c-0.4,0.7-1.2,1.1-2.1,1.1l0,0l-0.1,0.5c0.6,0.1,0.9,0.4,0.9,0.8c0,0.6-0.5,0.9-1.2,0.9
		c-0.3,0-0.6-0.1-0.9-0.2l0.2-0.4c0.2,0.1,0.4,0.2,0.7,0.2c0.4,0,0.6-0.2,0.6-0.5s-0.2-0.5-0.6-0.5h-0.2l0.2-0.9
		c-1.4-0.2-2.4-1.3-2.4-2.7c0-1.6,1.2-2.8,2.8-2.8c0.9,0,1.7,0.4,2.1,1.1l-0.5,0.4c-0.4-0.5-1-0.8-1.6-0.8c-1.2,0-2.1,0.9-2.1,2.1
		c0,1.3,0.9,2.1,2.1,2.1C213.4,56.5,214,56.2,214.3,55.7z"/>
	<path class="st0" d="M220.2,53.7v3.4h-0.7v-0.9c-0.3,0.6-1,0.9-1.9,0.9c-1.2,0-2-0.6-2-1.6c0-0.8,0.5-1.5,2.1-1.5h1.7v-0.3
		c0-0.9-0.5-1.4-1.5-1.4c-0.7,0-1.4,0.2-1.8,0.6l-0.3-0.5c0.5-0.5,1.4-0.7,2.2-0.7C219.4,51.6,220.2,52.3,220.2,53.7z M219.4,55.4
		v-0.9h-1.7c-1.1,0-1.4,0.4-1.4,1s0.5,1,1.4,1C218.5,56.5,219.1,56.1,219.4,55.4z"/>
	<path class="st0" d="M227.2,49.4v7.7h-0.7V56c-0.4,0.7-1.2,1.1-2.1,1.1c-1.6,0-2.7-1.1-2.7-2.8s1.2-2.8,2.7-2.8
		c0.9,0,1.6,0.4,2.1,1.1v-3.3h0.7V49.4z M226.4,54.3c0-1.3-0.9-2.1-2-2.1c-1.2,0-2,0.9-2,2.1s0.9,2.1,2,2.1
		C225.6,56.5,226.4,55.6,226.4,54.3z"/>
	<path class="st0" d="M228.7,54.3c0-1.6,1.2-2.8,2.8-2.8c1.6,0,2.8,1.2,2.8,2.8s-1.2,2.8-2.8,2.8C229.8,57.1,228.7,55.9,228.7,54.3z
		 M233.5,54.3c0-1.3-0.9-2.1-2-2.1s-2,0.9-2,2.1s0.9,2.1,2,2.1S233.5,55.6,233.5,54.3z"/>
	<path class="st0" d="M235,56.4l0.3-0.6c0.4,0.3,1.2,0.6,1.9,0.6c1,0,1.5-0.4,1.5-0.9c0-1.4-3.5-0.3-3.5-2.5c0-0.9,0.8-1.6,2.2-1.6
		c0.7,0,1.5,0.2,1.9,0.5l-0.3,0.6c-0.5-0.3-1-0.5-1.6-0.5c-1,0-1.4,0.4-1.4,0.9c0,1.5,3.5,0.4,3.5,2.5c0,0.9-0.8,1.6-2.3,1.6
		C236.3,57.1,235.4,56.8,235,56.4z"/>
	<path class="st0" d="M240.3,52.1c0-0.3,0.2-0.6,0.5-0.6s0.6,0.2,0.6,0.6c0,0.3-0.3,0.6-0.6,0.6S240.3,52.4,240.3,52.1z M241.4,56.5
		c0,0.2,0,0.3-0.1,0.6l-0.4,1.4h-0.5l0.4-1.5c-0.2-0.1-0.4-0.3-0.4-0.5c0-0.3,0.2-0.6,0.5-0.6C241.2,56,241.4,56.2,241.4,56.5z"/>
</g>
<polygon class="st2" points="156.6,58.2 156.6,58.2 190.8,58.2 "/>
<g>
	<path class="st0" d="M315.7,33.7c0,4.1-3.2,8.1-10.6,8.1c-3.2,0-6.6-0.7-9.1-2.1l2.6-5.7c2,1.2,4.2,1.7,6.2,1.7c1.7,0,3-0.6,3-1.8
		c0-1-0.7-1.7-3.5-1.7h-6.7l1.2-14h15.3v5.9h-8.9l-0.2,2.3h1.2C313.1,26.3,315.7,29.6,315.7,33.7z"/>
	<path class="st0" d="M336.1,33.7c0,4.1-3.2,8.1-10.6,8.1c-3.2,0-6.6-0.7-9.1-2.1L319,34c2,1.2,4.2,1.7,6.2,1.7c1.7,0,3-0.6,3-1.8
		c0-1-0.7-1.7-3.5-1.7H318l1.2-14h15.3v5.9h-8.9l-0.2,2.3h1.2C333.5,26.3,336.1,29.6,336.1,33.7z"/>
	<path class="st0" d="M337.7,29.7c0-7.7,4.4-12.1,10.5-12.1s10.5,4.4,10.5,12.1s-4.4,12.1-10.5,12.1
		C342.1,41.8,337.7,37.4,337.7,29.7z M350.8,29.7c0-4.5-1.1-5.8-2.6-5.8s-2.6,1.4-2.6,5.8c0,4.5,1.1,5.8,2.6,5.8
		C349.7,35.6,350.8,34.2,350.8,29.7z"/>
</g>
<g>
	<path class="st0" d="M297.7,47.8h-1.8v-1.1h4.9v1.1H299v4.5h-1.3V47.8z"/>
	<path class="st0" d="M305.1,52.3l-1.1-1.6h-0.1h-1.1v1.6h-1.3v-5.6h2.4c1.5,0,2.4,0.8,2.4,2c0,0.8-0.4,1.5-1.2,1.8l1.3,1.8H305.1z
		 M303.8,47.8h-1.1v2h1.1c0.8,0,1.2-0.4,1.2-1C305,48.1,304.6,47.8,303.8,47.8z"/>
	<path class="st0" d="M311.1,51.1h-2.6l-0.5,1.2h-1.3l2.5-5.6h1.3l2.5,5.6h-1.4L311.1,51.1z M310.6,50.1l-0.9-2.1l-0.9,2.1H310.6z"
		/>
	<path class="st0" d="M318.6,46.7v5.6h-1.1l-2.8-3.4v3.4h-1.3v-5.6h1.1l2.8,3.4v-3.4H318.6z"/>
	<path class="st0" d="M319.5,51.7l0.4-1c0.5,0.3,1.2,0.6,1.8,0.6c0.8,0,1.1-0.3,1.1-0.6c0-1-3.3-0.3-3.3-2.4c0-1,0.8-1.7,2.4-1.7
		c0.7,0,1.4,0.2,1.9,0.5l-0.4,1c-0.5-0.3-1.1-0.4-1.6-0.4c-0.8,0-1.1,0.3-1.1,0.6c0,1,3.3,0.3,3.3,2.4c0,0.9-0.8,1.7-2.4,1.7
		C320.9,52.4,320,52.1,319.5,51.7z"/>
	<path class="st0" d="M326.4,47.7v1.5h2.6v1h-2.6v2h-1.3v-5.6h4.2v1L326.4,47.7L326.4,47.7z"/>
	<path class="st0" d="M329.8,49.5c0-1.7,1.3-2.9,3.1-2.9c1.8,0,3.1,1.2,3.1,2.9s-1.3,2.9-3.1,2.9C331.1,52.4,329.8,51.2,329.8,49.5z
		 M334.6,49.5c0-1.1-0.8-1.8-1.8-1.8s-1.8,0.7-1.8,1.8s0.8,1.8,1.8,1.8C333.9,51.3,334.6,50.6,334.6,49.5z"/>
	<path class="st0" d="M340.5,52.3l-1.1-1.6h-0.1h-1.1v1.6h-1.3v-5.6h2.4c1.5,0,2.4,0.8,2.4,2c0,0.8-0.4,1.5-1.2,1.8l1.3,1.8H340.5z
		 M339.3,47.8h-1.1v2h1.1c0.8,0,1.2-0.4,1.2-1C340.5,48.1,340.1,47.8,339.3,47.8z"/>
	<path class="st0" d="M347.9,52.3v-3.4l-1.6,2.8h-0.6L344,49v3.3h-1.2v-5.6h1.1l2.1,3.5l2.1-3.5h1.1v5.6H347.9z"/>
	<path class="st0" d="M354.1,51.1h-2.6l-0.5,1.2h-1.3l2.5-5.6h1.3l2.5,5.6h-1.4L354.1,51.1z M353.7,50.1l-0.9-2.1l-0.9,2.1H353.7z"
		/>
	<path class="st0" d="M356.6,46.7h2.5c1.8,0,3.1,1.1,3.1,2.8s-1.3,2.8-3.1,2.8h-2.5V46.7z M359.1,51.2c1.1,0,1.8-0.7,1.8-1.7
		c0-1.1-0.7-1.7-1.8-1.7h-1.2v3.5L359.1,51.2L359.1,51.2z"/>
	<path class="st0" d="M362.7,49.5c0-1.7,1.3-2.9,3.1-2.9c1.8,0,3.1,1.2,3.1,2.9s-1.3,2.9-3.1,2.9S362.7,51.2,362.7,49.5z
		 M367.6,49.5c0-1.1-0.8-1.8-1.8-1.8s-1.8,0.7-1.8,1.8s0.8,1.8,1.8,1.8C366.8,51.3,367.6,50.6,367.6,49.5z"/>
	<path class="st0" d="M373.4,52.3l-1.1-1.6h-0.1h-1.1v1.6h-1.3v-5.6h2.4c1.5,0,2.4,0.8,2.4,2c0,0.8-0.4,1.5-1.2,1.8l1.3,1.8H373.4z
		 M372.2,47.8h-1.1v2h1.1c0.8,0,1.2-0.4,1.2-1C373.4,48.1,373,47.8,372.2,47.8z"/>
	<path class="st0" d="M380.1,51.3v1h-4.3v-5.6h4.2v1h-3V49h2.6v1H377v1.3H380.1z"/>
	<path class="st0" d="M380.7,51.7l0.4-1c0.5,0.3,1.2,0.6,1.8,0.6c0.8,0,1.1-0.3,1.1-0.6c0-1-3.3-0.3-3.3-2.4c0-1,0.8-1.7,2.4-1.7
		c0.7,0,1.4,0.2,1.9,0.5l-0.4,1c-0.5-0.3-1.1-0.4-1.6-0.4c-0.8,0-1.1,0.3-1.1,0.6c0,1,3.3,0.3,3.3,2.4c0,0.9-0.8,1.7-2.4,1.7
		C382,52.4,381.1,52.1,380.7,51.7z"/>
</g>
<polygon class="st3" points="295.9,52.9 295.9,52.9 383.8,52.9 "/>
<g>
	<path class="st0" d="M296.6,57.1c0-0.2,0.2-0.5,0.5-0.5s0.5,0.2,0.5,0.4c0,0.3-0.2,0.5-0.5,0.5C296.8,57.5,296.6,57.3,296.6,57.1z
		 M296.8,58.6h0.6v4.7h-0.6V58.6z"/>
	<path class="st0" d="M303.5,60.5v2.7h-0.6v-2.7c0-1-0.5-1.5-1.4-1.5c-1,0-1.7,0.6-1.7,1.7v2.5h-0.6v-4.7h0.6v0.9
		c0.3-0.6,1-0.9,1.8-0.9C302.8,58.5,303.5,59.2,303.5,60.5z"/>
	<path class="st0" d="M304.6,62.8l0.3-0.5c0.4,0.3,1,0.5,1.7,0.5c0.9,0,1.3-0.3,1.3-0.8c0-1.2-3.1-0.3-3.1-2.1
		c0-0.8,0.7-1.4,1.9-1.4c0.6,0,1.3,0.2,1.7,0.4l-0.3,0.5c-0.4-0.3-0.9-0.4-1.4-0.4c-0.9,0-1.2,0.3-1.2,0.8c0,1.3,3.1,0.3,3.1,2.1
		c0,0.8-0.7,1.4-2,1.4C305.8,63.3,305,63.1,304.6,62.8z"/>
	<path class="st0" d="M312.2,63c-0.3,0.2-0.6,0.3-1,0.3c-0.9,0-1.4-0.5-1.4-1.4V59H309v-0.5h0.8v-1h0.6v1h1.4V59h-1.4v2.8
		c0,0.6,0.3,0.9,0.8,0.9c0.3,0,0.5-0.1,0.7-0.2L312.2,63z"/>
	<path class="st0" d="M316.9,60.4v2.9h-0.6v-0.7c-0.3,0.5-0.8,0.8-1.6,0.8c-1.1,0-1.7-0.6-1.7-1.4c0-0.7,0.5-1.3,1.8-1.3h1.5v-0.3
		c0-0.8-0.5-1.3-1.3-1.3c-0.6,0-1.2,0.2-1.6,0.6l-0.3-0.5c0.5-0.4,1.2-0.6,1.9-0.6C316.2,58.5,316.9,59.1,316.9,60.4z M316.3,61.9
		v-0.8h-1.5c-0.9,0-1.2,0.4-1.2,0.8c0,0.5,0.4,0.9,1.2,0.9C315.5,62.8,316,62.5,316.3,61.9z"/>
	<path class="st0" d="M318.6,56.6h0.6v6.7h-0.6V56.6z"/>
	<path class="st0" d="M324.6,60.4v2.9H324v-0.7c-0.3,0.5-0.8,0.8-1.6,0.8c-1.1,0-1.7-0.6-1.7-1.4c0-0.7,0.5-1.3,1.8-1.3h1.5v-0.3
		c0-0.8-0.5-1.3-1.3-1.3c-0.6,0-1.2,0.2-1.6,0.6l-0.3-0.5c0.5-0.4,1.2-0.6,1.9-0.6C324,58.5,324.6,59.1,324.6,60.4z M324,61.9v-0.8
		h-1.5c-0.9,0-1.2,0.4-1.2,0.8c0,0.5,0.4,0.9,1.2,0.9C323.2,62.8,323.8,62.5,324,61.9z"/>
	<path class="st0" d="M330.7,56.6v6.7h-0.6v-0.9c-0.4,0.6-1,1-1.8,1c-1.3,0-2.4-1-2.4-2.4s1-2.4,2.4-2.4c0.8,0,1.4,0.3,1.8,0.9v-2.8
		L330.7,56.6L330.7,56.6z M330.1,60.9c0-1.1-0.8-1.8-1.8-1.8s-1.8,0.7-1.8,1.8s0.8,1.8,1.8,1.8C329.3,62.8,330.1,62,330.1,60.9z"/>
	<path class="st0" d="M332,60.9c0-1.4,1-2.4,2.4-2.4s2.4,1,2.4,2.4s-1,2.4-2.4,2.4C333,63.3,332,62.3,332,60.9z M336.2,60.9
		c0-1.1-0.7-1.8-1.8-1.8c-1,0-1.8,0.7-1.8,1.8s0.8,1.8,1.8,1.8C335.4,62.8,336.2,62,336.2,60.9z"/>
	<path class="st0" d="M337.5,62.8l0.3-0.5c0.4,0.3,1,0.5,1.7,0.5c0.9,0,1.3-0.3,1.3-0.8c0-1.2-3.1-0.3-3.1-2.1
		c0-0.8,0.7-1.4,1.9-1.4c0.6,0,1.3,0.2,1.7,0.4l-0.3,0.5c-0.4-0.3-0.9-0.4-1.4-0.4c-0.9,0-1.2,0.3-1.2,0.8c0,1.3,3.1,0.3,3.1,2.1
		c0,0.8-0.7,1.4-2,1.4C338.6,63.3,337.9,63.1,337.5,62.8z"/>
	<path class="st0" d="M342.1,62.8c0-0.3,0.2-0.5,0.5-0.5s0.5,0.2,0.5,0.5s-0.2,0.5-0.5,0.5C342.3,63.3,342.1,63.1,342.1,62.8z"/>
</g>
<line class="st4" x1="122.1" y1="5.7" x2="122.1" y2="65.7"/>
<line class="st4" x1="284.1" y1="5.7" x2="284.1" y2="65.7"/>
</svg>
