<?xml version="1.0" encoding="utf-8"?>
<!-- Generator: Adobe Illustrator 23.1.1, SVG Export Plug-In . SVG Version: 6.00 Build 0)  -->
<svg version="1.1" id="Layer_1" xmlns="http://www.w3.org/2000/svg" xmlns:xlink="http://www.w3.org/1999/xlink" x="0px" y="0px"
	 viewBox="0 0 512 72" style="enable-background:new 0 0 512 72;" xml:space="preserve">
<style type="text/css">
	.st0{fill:#FFFFFF;}
	.st1{fill:none;stroke:#FFFFFF;stroke-width:0.55;stroke-miterlimit:10;}
	.st2{fill:none;stroke:#FFFFFF;stroke-width:0.75;stroke-miterlimit:10;}
	.st3{fill:none;stroke:#FFFFFF;stroke-width:0.4;stroke-miterlimit:10;}
	.st4{fill:#FFFFFF;stroke:#FFFFFF;stroke-miterlimit:10;}
</style>
<g>
	<path class="st0" d="M136.8,17.9V41H129V23.8h-4v-5.9H136.8z"/>
	<path class="st0" d="M139.6,29.5c0-7.7,4.4-12.1,10.5-12.1c6.1,0,10.5,4.4,10.5,12.1s-4.4,12.1-10.5,12.1
		C144,41.6,139.6,37.1,139.6,29.5z M152.7,29.5c0-4.5-1.1-5.8-2.6-5.8c-1.5,0-2.6,1.4-2.6,5.8c0,4.5,1.1,5.8,2.6,5.8
		C151.6,35.3,152.7,33.9,152.7,29.5z"/>
	<path class="st0" d="M204.2,30.7V41h-7.5v-9c0-2.2-0.8-3.1-2-3.1c-1.3,0-2.3,0.9-2.3,3.3V41h-7.5v-9c0-2.2-0.8-3.1-2-3.1
		c-1.3,0-2.3,0.9-2.3,3.3V41h-7.5V23h7.1v1.7c1.4-1.4,3.1-2,5.1-2c2.3,0,4.4,0.9,5.6,2.7c1.5-1.7,3.6-2.7,6-2.7
		C201.1,22.6,204.2,25.1,204.2,30.7z"/>
	<path class="st0" d="M206.6,17.7c0-2.1,1.7-3.8,4.5-3.8c2.7,0,4.5,1.5,4.5,3.7c0,2.3-1.7,3.9-4.5,3.9
		C208.4,21.5,206.6,19.9,206.6,17.7z M207.4,23h7.5V41h-7.5V23z"/>
	<path class="st0" d="M218.2,16.5h7.5V41h-7.5V16.5z"/>
</g>
<g>
	<path class="st0" d="M132.5,52.2c0,1.7-1.3,2.8-3.3,2.8h-1.6v2.1h-1.8v-7.7h3.3C131.2,49.4,132.5,50.4,132.5,52.2z M130.7,52.2
		c0-0.8-0.5-1.3-1.6-1.3h-1.5v2.7h1.5C130.1,53.5,130.7,53,130.7,52.2z"/>
	<path class="st0" d="M133.4,53.2c0-2.3,1.8-4,4.2-4c2.4,0,4.2,1.7,4.2,4c0,2.3-1.8,4-4.2,4C135.1,57.2,133.4,55.5,133.4,53.2z
		 M140,53.2c0-1.5-1-2.5-2.4-2.5c-1.4,0-2.4,1-2.4,2.5s1,2.5,2.4,2.5C138.9,55.7,140,54.7,140,53.2z"/>
	<path class="st0" d="M142.5,56.3l0.6-1.3c0.6,0.5,1.6,0.8,2.5,0.8c1.1,0,1.5-0.4,1.5-0.8c0-1.4-4.5-0.5-4.5-3.3
		c0-1.3,1.1-2.4,3.2-2.4c1,0,2,0.2,2.7,0.7l-0.5,1.4c-0.7-0.4-1.5-0.6-2.1-0.6c-1.1,0-1.5,0.4-1.5,0.9c0,1.4,4.5,0.4,4.5,3.3
		c0,1.3-1.1,2.4-3.3,2.4C144.4,57.2,143.2,56.8,142.5,56.3z"/>
	<path class="st0" d="M151.7,50.8h-2.5v-1.5h6.7v1.5h-2.5v6.2h-1.8V50.8z"/>
	<path class="st0" d="M162.9,55.6v1.4h-6v-7.7h5.8v1.4h-4v1.7h3.6v1.4h-3.6v1.8H162.9z"/>
	<path class="st0" d="M163.7,56.3l0.6-1.3c0.6,0.5,1.6,0.8,2.5,0.8c1.1,0,1.5-0.4,1.5-0.8c0-1.4-4.5-0.5-4.5-3.3
		c0-1.3,1.1-2.4,3.2-2.4c1,0,2,0.2,2.7,0.7l-0.5,1.4c-0.7-0.4-1.5-0.6-2.1-0.6c-1.1,0-1.5,0.4-1.5,0.9c0,1.4,4.5,0.4,4.5,3.3
		c0,1.3-1.1,2.4-3.3,2.4C165.6,57.2,164.4,56.8,163.7,56.3z"/>
</g>
<g>
	<path class="st0" d="M173.1,50.8c0-0.2,0.2-0.5,0.5-0.5s0.5,0.2,0.5,0.4c0,0.3-0.2,0.5-0.5,0.5C173.3,51.3,173.1,51.1,173.1,50.8z
		 M173.2,52.3h0.6v4.7h-0.6V52.3z"/>
	<path class="st0" d="M183.4,54.3v2.7h-0.6v-2.7c0-1-0.5-1.5-1.4-1.5c-1,0-1.6,0.6-1.6,1.7v2.5h-0.6v-2.7c0-1-0.5-1.5-1.4-1.5
		c-1,0-1.6,0.6-1.6,1.7v2.5h-0.6v-4.7h0.6v0.9c0.3-0.6,0.9-0.9,1.7-0.9c0.8,0,1.4,0.3,1.7,1c0.3-0.6,1-1,1.9-1
		C182.7,52.3,183.4,53,183.4,54.3z"/>
	<path class="st0" d="M190,54.7c0,1.4-1,2.4-2.4,2.4c-0.8,0-1.4-0.3-1.8-0.9v2.6h-0.6v-6.5h0.6v0.9c0.4-0.6,1-1,1.8-1
		C189,52.3,190,53.3,190,54.7z M189.3,54.7c0-1.1-0.8-1.8-1.8-1.8c-1,0-1.8,0.7-1.8,1.8c0,1.1,0.8,1.8,1.8,1.8
		C188.6,56.5,189.3,55.8,189.3,54.7z"/>
	<path class="st0" d="M191.3,50.4h0.6v6.7h-0.6V50.4z"/>
	<path class="st0" d="M197.3,54.1v2.9h-0.6v-0.7c-0.3,0.5-0.8,0.8-1.6,0.8c-1.1,0-1.7-0.6-1.7-1.4c0-0.7,0.5-1.3,1.8-1.3h1.5v-0.3
		c0-0.8-0.5-1.3-1.3-1.3c-0.6,0-1.2,0.2-1.6,0.6l-0.3-0.5c0.5-0.4,1.2-0.6,1.9-0.6C196.6,52.3,197.3,52.9,197.3,54.1z M196.6,55.6
		v-0.8h-1.5c-0.9,0-1.2,0.4-1.2,0.8c0,0.5,0.4,0.9,1.2,0.9C195.8,56.6,196.4,56.3,196.6,55.6z"/>
	<path class="st0" d="M203.4,54.3v2.7h-0.6v-2.7c0-1-0.5-1.5-1.4-1.5c-1,0-1.7,0.6-1.7,1.7v2.5H199v-4.7h0.6v0.9
		c0.3-0.6,1-0.9,1.8-0.9C202.6,52.3,203.4,53,203.4,54.3z"/>
	<path class="st0" d="M207.6,56.8c-0.3,0.2-0.6,0.3-1,0.3c-0.9,0-1.4-0.5-1.4-1.4v-2.9h-0.8v-0.5h0.8v-1h0.6v1h1.4v0.5h-1.4v2.8
		c0,0.6,0.3,0.9,0.8,0.9c0.3,0,0.5-0.1,0.7-0.2L207.6,56.8z"/>
	<path class="st0" d="M212.3,54.1v2.9h-0.6v-0.7c-0.3,0.5-0.8,0.8-1.6,0.8c-1.1,0-1.7-0.6-1.7-1.4c0-0.7,0.5-1.3,1.8-1.3h1.5v-0.3
		c0-0.8-0.5-1.3-1.3-1.3c-0.6,0-1.2,0.2-1.6,0.6l-0.3-0.5c0.5-0.4,1.2-0.6,1.9-0.6C211.6,52.3,212.3,52.9,212.3,54.1z M211.7,55.6
		v-0.8h-1.5c-0.9,0-1.2,0.4-1.2,0.8c0,0.5,0.4,0.9,1.2,0.9C210.9,56.6,211.4,56.3,211.7,55.6z"/>
	<path class="st0" d="M218.4,50.4v6.7h-0.6v-0.9c-0.4,0.6-1,1-1.8,1c-1.4,0-2.4-1-2.4-2.4c0-1.4,1-2.4,2.4-2.4
		c0.8,0,1.4,0.3,1.8,0.9v-2.8H218.4z M217.8,54.7c0-1.1-0.8-1.8-1.8-1.8c-1,0-1.8,0.7-1.8,1.8c0,1.1,0.8,1.8,1.8,1.8
		C217,56.5,217.8,55.8,217.8,54.7z"/>
	<path class="st0" d="M219.7,54.7c0-1.4,1-2.4,2.4-2.4c1.4,0,2.4,1,2.4,2.4c0,1.4-1,2.4-2.4,2.4C220.7,57.1,219.7,56.1,219.7,54.7z
		 M223.9,54.7c0-1.1-0.7-1.8-1.8-1.8s-1.8,0.7-1.8,1.8c0,1.1,0.8,1.8,1.8,1.8S223.9,55.8,223.9,54.7z"/>
	<path class="st0" d="M225.1,56.5l0.3-0.5c0.4,0.3,1,0.5,1.7,0.5c0.9,0,1.3-0.3,1.3-0.8c0-1.2-3.1-0.3-3.1-2.1
		c0-0.8,0.7-1.4,1.9-1.4c0.6,0,1.3,0.2,1.7,0.4l-0.3,0.5c-0.4-0.3-0.9-0.4-1.4-0.4c-0.9,0-1.2,0.3-1.2,0.8c0,1.3,3.1,0.3,3.1,2.1
		c0,0.8-0.7,1.4-2,1.4C226.3,57.1,225.5,56.9,225.1,56.5z"/>
	<path class="st0" d="M229.8,52.8c0-0.3,0.2-0.5,0.5-0.5c0.3,0,0.5,0.2,0.5,0.5s-0.2,0.5-0.5,0.5C230,53.3,229.8,53.1,229.8,52.8z
		 M230.8,56.6c0,0.2,0,0.3-0.1,0.5l-0.4,1.2h-0.4l0.3-1.3c-0.2-0.1-0.3-0.2-0.3-0.5c0-0.3,0.2-0.5,0.5-0.5
		C230.6,56.1,230.8,56.3,230.8,56.6z"/>
</g>
<polygon class="st1" points="124.9,57.9 124.9,57.9 169.6,57.9 "/>
<g>
	<path class="st0" d="M281.1,37.1H278v4h-7.6v-4h-12v-5l9.8-14.2h8L267.6,31h3.1v-3.5h7.3V31h3.1V37.1z"/>
	<path class="st0" d="M301.7,17.9v4.8L294,41h-8.5l7.3-17.1h-4.5v3.4h-6.4v-9.4H301.7z"/>
	<path class="st0" d="M303.5,29.5c0-7.7,4.4-12.1,10.5-12.1c6.1,0,10.5,4.4,10.5,12.1s-4.4,12.1-10.5,12.1
		C307.8,41.6,303.5,37.1,303.5,29.5z M316.6,29.5c0-4.5-1.1-5.8-2.6-5.8c-1.5,0-2.6,1.4-2.6,5.8c0,4.5,1.1,5.8,2.6,5.8
		C315.5,35.3,316.6,33.9,316.6,29.5z"/>
	<path class="st0" d="M345.6,35.5l-1.2,1.3V41h-7.5V16.5h7.5v11.7l5.2-5.2h8.8l-7.5,7.8L359,41h-9L345.6,35.5z"/>
	<path class="st0" d="M391.5,30.7V41h-7.5v-9c0-2.2-0.8-3.1-2-3.1c-1.3,0-2.3,0.9-2.3,3.3V41h-7.5v-9c0-2.2-0.8-3.1-2-3.1
		c-1.3,0-2.3,0.9-2.3,3.3V41h-7.5V23h7.1v1.7c1.4-1.4,3.1-2,5.1-2c2.3,0,4.4,0.9,5.6,2.7c1.5-1.7,3.6-2.7,6-2.7
		C388.4,22.6,391.5,25.1,391.5,30.7z"/>
</g>
<g>
	<path class="st0" d="M263.9,49.4v7.7h-1v-0.9c-0.4,0.6-1.2,0.9-2,0.9c-1.6,0-2.8-1.1-2.8-2.8c0-1.7,1.2-2.8,2.8-2.8
		c0.8,0,1.5,0.3,1.9,0.9v-3H263.9z M262.9,54.3c0-1.2-0.8-1.9-1.8-1.9c-1.1,0-1.9,0.8-1.9,1.9c0,1.2,0.8,1.9,1.9,1.9
		C262.1,56.2,262.9,55.5,262.9,54.3z"/>
	<path class="st0" d="M270.7,54.6h-4.5c0.1,1,0.9,1.6,2,1.6c0.6,0,1.2-0.2,1.6-0.7l0.5,0.6c-0.5,0.6-1.3,0.9-2.2,0.9
		c-1.8,0-3-1.2-3-2.8c0-1.6,1.2-2.8,2.8-2.8c1.6,0,2.7,1.1,2.7,2.8C270.7,54.4,270.7,54.5,270.7,54.6z M266.2,53.9h3.5
		c-0.1-0.9-0.8-1.6-1.8-1.6C267.1,52.3,266.4,53,266.2,53.9z"/>
</g>
<g>
	<path class="st0" d="M282.6,57.1l-2-2.9h-0.1h-2.1v2.9h-2.4V46.6h4.5c2.8,0,4.6,1.5,4.6,3.8c0,1.6-0.8,2.7-2.2,3.3l2.4,3.4H282.6z
		 M280.3,48.5h-2v3.7h2c1.5,0,2.2-0.7,2.2-1.8C282.5,49.2,281.8,48.5,280.3,48.5z"/>
	<path class="st0" d="M296.5,57.1l0-6.3l-3.1,5.2h-1.1l-3.1-5.1v6.2h-2.3V46.6h2l3.9,6.5l3.9-6.5h2l0,10.5H296.5z"/>
	<path class="st0" d="M303.4,48.5h-3.4v-2h9.2v2h-3.4v8.5h-2.4V48.5z"/>
</g>
<g>
	<path class="st0" d="M312.5,49.4h0.7v7.7h-0.7V49.4z"/>
	<path class="st0" d="M319.5,53.7v3.4h-0.7v-0.9c-0.3,0.6-1,0.9-1.9,0.9c-1.2,0-2-0.6-2-1.6c0-0.8,0.5-1.5,2.1-1.5h1.7v-0.3
		c0-0.9-0.5-1.4-1.5-1.4c-0.7,0-1.4,0.2-1.8,0.6l-0.3-0.5c0.5-0.5,1.4-0.7,2.2-0.7C318.7,51.6,319.5,52.3,319.5,53.7z M318.7,55.4
		v-0.9H317c-1.1,0-1.4,0.4-1.4,1c0,0.6,0.5,1,1.4,1C317.8,56.5,318.4,56.1,318.7,55.4z"/>
	<path class="st0" d="M326.5,53.9v3.2h-0.7V54c0-1.2-0.6-1.7-1.6-1.7c-1.2,0-1.9,0.7-1.9,2v2.9h-0.7v-5.5h0.7v1c0.4-0.7,1.1-1,2.1-1
		C325.6,51.6,326.5,52.3,326.5,53.9z"/>
	<path class="st0" d="M332.3,55.7l0.5,0.4c-0.4,0.7-1.2,1.1-2.1,1.1h0l-0.1,0.5c0.6,0.1,0.9,0.4,0.9,0.8c0,0.6-0.5,0.9-1.2,0.9
		c-0.3,0-0.6-0.1-0.9-0.2l0.2-0.4c0.2,0.1,0.4,0.2,0.7,0.2c0.4,0,0.6-0.2,0.6-0.5c0-0.3-0.2-0.5-0.6-0.5h-0.2l0.2-0.9
		c-1.4-0.2-2.4-1.3-2.4-2.7c0-1.6,1.2-2.8,2.8-2.8c0.9,0,1.7,0.4,2.1,1.1l-0.5,0.4c-0.4-0.5-1-0.8-1.6-0.8c-1.2,0-2.1,0.9-2.1,2.1
		c0,1.3,0.9,2.1,2.1,2.1C331.4,56.5,332,56.2,332.3,55.7z"/>
	<path class="st0" d="M338.2,53.7v3.4h-0.7v-0.9c-0.3,0.6-1,0.9-1.9,0.9c-1.2,0-2-0.6-2-1.6c0-0.8,0.5-1.5,2.1-1.5h1.7v-0.3
		c0-0.9-0.5-1.4-1.5-1.4c-0.7,0-1.4,0.2-1.8,0.6l-0.3-0.5c0.5-0.5,1.4-0.7,2.2-0.7C337.4,51.6,338.2,52.3,338.2,53.7z M337.4,55.4
		v-0.9h-1.7c-1.1,0-1.4,0.4-1.4,1c0,0.6,0.5,1,1.4,1C336.5,56.5,337.1,56.1,337.4,55.4z"/>
	<path class="st0" d="M345.2,49.4v7.7h-0.7V56c-0.4,0.7-1.2,1.1-2.1,1.1c-1.6,0-2.7-1.1-2.7-2.8c0-1.7,1.2-2.8,2.7-2.8
		c0.9,0,1.6,0.4,2.1,1.1v-3.3H345.2z M344.4,54.3c0-1.3-0.9-2.1-2-2.1c-1.2,0-2,0.9-2,2.1s0.9,2.1,2,2.1
		C343.6,56.5,344.4,55.6,344.4,54.3z"/>
	<path class="st0" d="M346.7,54.3c0-1.6,1.2-2.8,2.8-2.8c1.6,0,2.8,1.2,2.8,2.8c0,1.6-1.2,2.8-2.8,2.8
		C347.8,57.1,346.7,55.9,346.7,54.3z M351.5,54.3c0-1.3-0.9-2.1-2-2.1s-2,0.9-2,2.1s0.9,2.1,2,2.1S351.5,55.6,351.5,54.3z"/>
	<path class="st0" d="M353,56.4l0.3-0.6c0.4,0.3,1.2,0.6,1.9,0.6c1,0,1.5-0.4,1.5-0.9c0-1.4-3.5-0.3-3.5-2.5c0-0.9,0.8-1.6,2.2-1.6
		c0.7,0,1.5,0.2,1.9,0.5l-0.3,0.6c-0.5-0.3-1-0.5-1.6-0.5c-1,0-1.4,0.4-1.4,0.9c0,1.5,3.5,0.4,3.5,2.5c0,0.9-0.8,1.6-2.3,1.6
		C354.3,57.1,353.4,56.8,353,56.4z"/>
	<path class="st0" d="M358.3,52.1c0-0.3,0.2-0.6,0.5-0.6s0.6,0.2,0.6,0.6c0,0.3-0.3,0.6-0.6,0.6S358.3,52.4,358.3,52.1z M359.4,56.5
		c0,0.2,0,0.3-0.1,0.6l-0.4,1.4h-0.5l0.4-1.5c-0.2-0.1-0.4-0.3-0.4-0.5c0-0.3,0.2-0.6,0.5-0.6C359.2,56,359.4,56.2,359.4,56.5z"/>
</g>
<polygon class="st2" points="274.6,58.2 274.6,58.2 308.8,58.2 "/>
<g>
	<path class="st0" d="M433.7,33.7c0,4.1-3.2,8.1-10.6,8.1c-3.2,0-6.6-0.7-9.1-2.1l2.6-5.7c2,1.2,4.2,1.7,6.2,1.7c1.7,0,3-0.6,3-1.8
		c0-1-0.7-1.7-3.5-1.7h-6.7l1.2-14h15.3v5.9h-8.9l-0.2,2.3h1.2C431.1,26.3,433.7,29.6,433.7,33.7z"/>
	<path class="st0" d="M454.1,33.7c0,4.1-3.2,8.1-10.6,8.1c-3.2,0-6.6-0.7-9.1-2.1l2.6-5.7c2,1.2,4.2,1.7,6.2,1.7c1.7,0,3-0.6,3-1.8
		c0-1-0.7-1.7-3.5-1.7h-6.7l1.2-14h15.3v5.9h-8.9l-0.2,2.3h1.2C451.5,26.3,454.1,29.6,454.1,33.7z"/>
	<path class="st0" d="M455.7,29.7c0-7.7,4.4-12.1,10.5-12.1c6.1,0,10.5,4.4,10.5,12.1s-4.4,12.1-10.5,12.1
		C460.1,41.8,455.7,37.4,455.7,29.7z M468.8,29.7c0-4.5-1.1-5.8-2.6-5.8c-1.5,0-2.6,1.4-2.6,5.8c0,4.5,1.1,5.8,2.6,5.8
		C467.7,35.6,468.8,34.2,468.8,29.7z"/>
</g>
<g>
	<path class="st0" d="M415.7,47.8h-1.8v-1.1h4.9v1.1H417v4.5h-1.3V47.8z"/>
	<path class="st0" d="M423.1,52.3l-1.1-1.6h-0.1h-1.1v1.6h-1.3v-5.6h2.4c1.5,0,2.4,0.8,2.4,2c0,0.8-0.4,1.5-1.2,1.8l1.3,1.8H423.1z
		 M421.8,47.8h-1.1v2h1.1c0.8,0,1.2-0.4,1.2-1C423,48.1,422.6,47.8,421.8,47.8z"/>
	<path class="st0" d="M429.1,51.1h-2.6l-0.5,1.2h-1.3l2.5-5.6h1.3l2.5,5.6h-1.4L429.1,51.1z M428.6,50.1l-0.9-2.1l-0.9,2.1H428.6z"
		/>
	<path class="st0" d="M436.6,46.7v5.6h-1.1l-2.8-3.4v3.4h-1.3v-5.6h1.1l2.8,3.4v-3.4H436.6z"/>
	<path class="st0" d="M437.5,51.7l0.4-1c0.5,0.3,1.2,0.6,1.8,0.6c0.8,0,1.1-0.3,1.1-0.6c0-1-3.3-0.3-3.3-2.4c0-1,0.8-1.7,2.4-1.7
		c0.7,0,1.4,0.2,1.9,0.5l-0.4,1c-0.5-0.3-1.1-0.4-1.6-0.4c-0.8,0-1.1,0.3-1.1,0.6c0,1,3.3,0.3,3.3,2.4c0,0.9-0.8,1.7-2.4,1.7
		C438.9,52.4,438,52.1,437.5,51.7z"/>
	<path class="st0" d="M444.4,47.7v1.5h2.6v1h-2.6v2h-1.3v-5.6h4.2v1H444.4z"/>
	<path class="st0" d="M447.8,49.5c0-1.7,1.3-2.9,3.1-2.9c1.8,0,3.1,1.2,3.1,2.9c0,1.7-1.3,2.9-3.1,2.9
		C449.1,52.4,447.8,51.2,447.8,49.5z M452.6,49.5c0-1.1-0.8-1.8-1.8-1.8c-1,0-1.8,0.7-1.8,1.8s0.8,1.8,1.8,1.8
		C451.9,51.3,452.6,50.6,452.6,49.5z"/>
	<path class="st0" d="M458.5,52.3l-1.1-1.6h-0.1h-1.1v1.6h-1.3v-5.6h2.4c1.5,0,2.4,0.8,2.4,2c0,0.8-0.4,1.5-1.2,1.8l1.3,1.8H458.5z
		 M457.3,47.8h-1.1v2h1.1c0.8,0,1.2-0.4,1.2-1C458.5,48.1,458.1,47.8,457.3,47.8z"/>
	<path class="st0" d="M465.9,52.3l0-3.4l-1.6,2.8h-0.6L462,49v3.3h-1.2v-5.6h1.1l2.1,3.5l2.1-3.5h1.1l0,5.6H465.9z"/>
	<path class="st0" d="M472.1,51.1h-2.6l-0.5,1.2h-1.3l2.5-5.6h1.3l2.5,5.6h-1.4L472.1,51.1z M471.7,50.1l-0.9-2.1l-0.9,2.1H471.7z"
		/>
	<path class="st0" d="M474.6,46.7h2.5c1.8,0,3.1,1.1,3.1,2.8c0,1.7-1.3,2.8-3.1,2.8h-2.5V46.7z M477.1,51.2c1.1,0,1.8-0.7,1.8-1.7
		c0-1.1-0.7-1.7-1.8-1.7h-1.2v3.5H477.1z"/>
	<path class="st0" d="M480.7,49.5c0-1.7,1.3-2.9,3.1-2.9c1.8,0,3.1,1.2,3.1,2.9c0,1.7-1.3,2.9-3.1,2.9
		C482,52.4,480.7,51.2,480.7,49.5z M485.6,49.5c0-1.1-0.8-1.8-1.8-1.8c-1,0-1.8,0.7-1.8,1.8s0.8,1.8,1.8,1.8
		C484.8,51.3,485.6,50.6,485.6,49.5z"/>
	<path class="st0" d="M491.4,52.3l-1.1-1.6h-0.1h-1.1v1.6h-1.3v-5.6h2.4c1.5,0,2.4,0.8,2.4,2c0,0.8-0.4,1.5-1.2,1.8l1.3,1.8H491.4z
		 M490.2,47.8h-1.1v2h1.1c0.8,0,1.2-0.4,1.2-1C491.4,48.1,491,47.8,490.2,47.8z"/>
	<path class="st0" d="M498.1,51.3v1h-4.3v-5.6h4.2v1H495V49h2.6v1H495v1.3H498.1z"/>
	<path class="st0" d="M498.7,51.7l0.4-1c0.5,0.3,1.2,0.6,1.8,0.6c0.8,0,1.1-0.3,1.1-0.6c0-1-3.3-0.3-3.3-2.4c0-1,0.8-1.7,2.4-1.7
		c0.7,0,1.4,0.2,1.9,0.5l-0.4,1c-0.5-0.3-1.1-0.4-1.6-0.4c-0.8,0-1.1,0.3-1.1,0.6c0,1,3.3,0.3,3.3,2.4c0,0.9-0.8,1.7-2.4,1.7
		C500,52.4,499.1,52.1,498.7,51.7z"/>
</g>
<polygon class="st3" points="413.9,52.9 413.9,52.9 501.8,52.9 "/>
<g>
	<path class="st0" d="M414.6,57.1c0-0.2,0.2-0.5,0.5-0.5c0.3,0,0.5,0.2,0.5,0.4c0,0.3-0.2,0.5-0.5,0.5
		C414.8,57.5,414.6,57.3,414.6,57.1z M414.8,58.6h0.6v4.7h-0.6V58.6z"/>
	<path class="st0" d="M421.5,60.5v2.7h-0.6v-2.7c0-1-0.5-1.5-1.4-1.5c-1,0-1.7,0.6-1.7,1.7v2.5h-0.6v-4.7h0.6v0.9
		c0.3-0.6,1-0.9,1.8-0.9C420.8,58.5,421.5,59.2,421.5,60.5z"/>
	<path class="st0" d="M422.6,62.8l0.3-0.5c0.4,0.3,1,0.5,1.7,0.5c0.9,0,1.3-0.3,1.3-0.8c0-1.2-3.1-0.3-3.1-2.1
		c0-0.8,0.7-1.4,1.9-1.4c0.6,0,1.3,0.2,1.7,0.4l-0.3,0.5c-0.4-0.3-0.9-0.4-1.4-0.4c-0.9,0-1.2,0.3-1.2,0.8c0,1.3,3.1,0.3,3.1,2.1
		c0,0.8-0.7,1.4-2,1.4C423.8,63.3,423,63.1,422.6,62.8z"/>
	<path class="st0" d="M430.2,63c-0.3,0.2-0.6,0.3-1,0.3c-0.9,0-1.4-0.5-1.4-1.4v-2.9h-0.8v-0.5h0.8v-1h0.6v1h1.4v0.5h-1.4v2.8
		c0,0.6,0.3,0.9,0.8,0.9c0.3,0,0.5-0.1,0.7-0.2L430.2,63z"/>
	<path class="st0" d="M434.9,60.4v2.9h-0.6v-0.7c-0.3,0.5-0.8,0.8-1.6,0.8c-1.1,0-1.7-0.6-1.7-1.4c0-0.7,0.5-1.3,1.8-1.3h1.5v-0.3
		c0-0.8-0.5-1.3-1.3-1.3c-0.6,0-1.2,0.2-1.6,0.6l-0.3-0.5c0.5-0.4,1.2-0.6,1.9-0.6C434.2,58.5,434.9,59.1,434.9,60.4z M434.3,61.9
		v-0.8h-1.5c-0.9,0-1.2,0.4-1.2,0.8c0,0.5,0.4,0.9,1.2,0.9C433.5,62.8,434,62.5,434.3,61.9z"/>
	<path class="st0" d="M436.6,56.6h0.6v6.7h-0.6V56.6z"/>
	<path class="st0" d="M442.6,60.4v2.9H442v-0.7c-0.3,0.5-0.8,0.8-1.6,0.8c-1.1,0-1.7-0.6-1.7-1.4c0-0.7,0.5-1.3,1.8-1.3h1.5v-0.3
		c0-0.8-0.5-1.3-1.3-1.3c-0.6,0-1.2,0.2-1.6,0.6l-0.3-0.5c0.5-0.4,1.2-0.6,1.9-0.6C442,58.5,442.6,59.1,442.6,60.4z M442,61.9v-0.8
		h-1.5c-0.9,0-1.2,0.4-1.2,0.8c0,0.5,0.4,0.9,1.2,0.9C441.2,62.8,441.8,62.5,442,61.9z"/>
	<path class="st0" d="M448.7,56.6v6.7h-0.6v-0.9c-0.4,0.6-1,1-1.8,1c-1.3,0-2.4-1-2.4-2.4c0-1.4,1-2.4,2.4-2.4
		c0.8,0,1.4,0.3,1.8,0.9v-2.8H448.7z M448.1,60.9c0-1.1-0.8-1.8-1.8-1.8c-1,0-1.8,0.7-1.8,1.8c0,1.1,0.8,1.8,1.8,1.8
		C447.3,62.8,448.1,62,448.1,60.9z"/>
	<path class="st0" d="M450,60.9c0-1.4,1-2.4,2.4-2.4c1.4,0,2.4,1,2.4,2.4c0,1.4-1,2.4-2.4,2.4C451,63.3,450,62.3,450,60.9z
		 M454.2,60.9c0-1.1-0.7-1.8-1.8-1.8c-1,0-1.8,0.7-1.8,1.8c0,1.1,0.8,1.8,1.8,1.8C453.4,62.8,454.2,62,454.2,60.9z"/>
	<path class="st0" d="M455.5,62.8l0.3-0.5c0.4,0.3,1,0.5,1.7,0.5c0.9,0,1.3-0.3,1.3-0.8c0-1.2-3.1-0.3-3.1-2.1
		c0-0.8,0.7-1.4,1.9-1.4c0.6,0,1.3,0.2,1.7,0.4l-0.3,0.5c-0.4-0.3-0.9-0.4-1.4-0.4c-0.9,0-1.2,0.3-1.2,0.8c0,1.3,3.1,0.3,3.1,2.1
		c0,0.8-0.7,1.4-2,1.4C456.6,63.3,455.9,63.1,455.5,62.8z"/>
	<path class="st0" d="M460.1,62.8c0-0.3,0.2-0.5,0.5-0.5c0.3,0,0.5,0.2,0.5,0.5s-0.2,0.5-0.5,0.5C460.3,63.3,460.1,63.1,460.1,62.8z
		"/>
</g>
<g>
	<path class="st0" d="M16.8,15.9v8.4h-1.3l-4.6-5.7v5.7H9.4v-8.4h1.3l4.6,5.7v-5.7H16.8z"/>
	<path class="st0" d="M26.4,17.9v6.4H25v-0.8c-0.5,0.6-1.2,0.9-2.1,0.9c-1.6,0-2.8-0.9-2.8-2.8v-3.7h1.5v3.5c0,1.2,0.6,1.7,1.5,1.7
		c1,0,1.8-0.6,1.8-1.9v-3.2H26.4z M23.6,17h-1.3l1.6-1.6h1.8L23.6,17z"/>
	<path class="st0" d="M40.4,20.7v3.7h-1.5v-3.5c0-1.1-0.5-1.7-1.4-1.7c-1,0-1.7,0.6-1.7,1.9v3.2h-1.5v-3.5c0-1.1-0.5-1.7-1.4-1.7
		c-1,0-1.7,0.6-1.7,1.9v3.2h-1.5v-6.4h1.4v0.8c0.5-0.6,1.2-0.9,2.1-0.9c0.9,0,1.7,0.3,2.2,1.1c0.5-0.7,1.4-1.1,2.4-1.1
		C39.3,17.8,40.4,18.7,40.4,20.7z"/>
	<path class="st0" d="M49.6,21.6h-5c0.2,0.9,1,1.5,2.1,1.5c0.7,0,1.3-0.2,1.7-0.7l0.8,0.9c-0.6,0.7-1.5,1-2.6,1
		c-2.2,0-3.5-1.4-3.5-3.3s1.4-3.3,3.3-3.3c1.9,0,3.2,1.3,3.2,3.3C49.7,21.3,49.6,21.5,49.6,21.6z M44.6,20.6h3.6
		c-0.1-0.9-0.8-1.6-1.8-1.6C45.4,19,44.7,19.7,44.6,20.6z"/>
	<path class="st0" d="M56.1,17.8v1.4c-0.1,0-0.2,0-0.3,0c-1.1,0-1.9,0.7-1.9,2v3.1h-1.5v-6.4h1.4v0.9C54.2,18.2,55,17.8,56.1,17.8z"
		/>
	<path class="st0" d="M58.2,21.1c0-1.9,1.4-3.3,3.4-3.3c2,0,3.4,1.4,3.4,3.3s-1.4,3.3-3.4,3.3C59.6,24.4,58.2,23,58.2,21.1z
		 M63.5,21.1c0-1.2-0.8-2-1.9-2c-1.1,0-1.9,0.8-1.9,2s0.8,2,1.9,2C62.7,23.1,63.5,22.3,63.5,21.1z"/>
	<path class="st0" d="M67,23.7l0.6-1.1c0.6,0.4,1.4,0.6,2.2,0.6c1,0,1.3-0.3,1.3-0.7c0-1.2-4-0.1-4-2.6c0-1.2,1.1-2,2.8-2
		c0.9,0,1.8,0.2,2.4,0.6l-0.6,1.1c-0.6-0.4-1.2-0.5-1.8-0.5c-0.9,0-1.3,0.3-1.3,0.7c0,1.3,4,0.1,4,2.7c0,1.2-1.1,2-2.9,2
		C68.7,24.4,67.6,24.1,67,23.7z"/>
	<path class="st0" d="M86.1,15.4v8.9h-1.4v-0.8c-0.5,0.6-1.3,0.9-2.1,0.9c-1.9,0-3.2-1.3-3.2-3.3s1.4-3.3,3.2-3.3
		c0.8,0,1.6,0.3,2.1,0.9v-3.3H86.1z M84.6,21.1c0-1.2-0.8-2-1.9-2s-1.9,0.8-1.9,2s0.8,2,1.9,2S84.6,22.3,84.6,21.1z"/>
	<path class="st0" d="M95.3,21.6h-5c0.2,0.9,1,1.5,2.1,1.5c0.7,0,1.3-0.2,1.7-0.7l0.8,0.9c-0.6,0.7-1.5,1-2.6,1
		c-2.2,0-3.5-1.4-3.5-3.3s1.4-3.3,3.3-3.3c1.9,0,3.2,1.3,3.2,3.3C95.4,21.3,95.4,21.5,95.3,21.6z M90.3,20.6h3.6
		c-0.1-0.9-0.8-1.6-1.8-1.6C91.1,19,90.4,19.7,90.3,20.6z"/>
</g>
<g>
	<path class="st0" d="M30.1,47.6v6.8H9.2V49l9.4-8.7c1.8-1.7,2-2.7,2-3.6c0-1.3-0.9-2-2.5-2c-1.6,0-3,0.9-3.8,2.4l-6.6-3.3
		c1.9-3.6,5.6-6,11.2-6c6.2,0,10.5,3.2,10.5,8.1c0,2.6-0.7,4.8-4.5,8.3l-3.7,3.4H30.1z"/>
	<path class="st0" d="M31.8,41.4c0-8.6,4.9-13.5,11.8-13.5s11.8,5,11.8,13.5c0,8.6-4.9,13.5-11.8,13.5S31.8,50,31.8,41.4z
		 M46.6,41.4c0-5-1.3-6.5-3-6.5c-1.7,0-3,1.6-3,6.5c0,5,1.3,6.5,3,6.5C45.3,47.9,46.6,46.4,46.6,41.4z"/>
	<path class="st0" d="M69.8,28.4v25.9h-8.8V35h-4.5v-6.6H69.8z"/>
	<path class="st0" d="M95.4,40.6c0,9.1-5.8,14.4-14.4,14.4c-3.1,0-6.1-0.7-8-2l3.2-6.1c1.5,1.1,3.1,1.4,4.7,1.4c3,0,5-1.5,5.6-4.4
		c-1.3,0.9-3,1.4-5.2,1.4c-4.7,0-8.9-3.2-8.9-8.3c0-5.6,4.7-9.1,10.5-9.1C90.3,27.8,95.4,32.1,95.4,40.6z M86.2,36.5
		c0-1.6-1.1-2.6-2.7-2.6c-1.6,0-2.7,1-2.7,2.6s1.1,2.7,2.7,2.7C85.1,39.2,86.2,38.1,86.2,36.5z"/>
</g>
<line class="st4" x1="240.1" y1="5.7" x2="240.1" y2="65.7"/>
<line class="st4" x1="402.1" y1="5.7" x2="402.1" y2="65.7"/>
</svg>
