<?xml version="1.0" encoding="utf-8"?>
<!-- Generator: Adobe Illustrator 23.1.1, SVG Export Plug-In . SVG Version: 6.00 Build 0)  -->
<svg version="1.1" id="Camada_1" xmlns="http://www.w3.org/2000/svg" xmlns:xlink="http://www.w3.org/1999/xlink" x="0px" y="0px"
	 viewBox="0 0 800 800" style="enable-background:new 0 0 800 800;" xml:space="preserve">
<style type="text/css">
	.st0{fill:#E99500;}
	.st1{fill:#E99500;stroke:#E99500;stroke-width:8.1914;stroke-miterlimit:10;}
	.st2{fill:#E99500;stroke:#E99500;stroke-width:4.3556;stroke-miterlimit:10;}
</style>
<g>
	<g>
		<path class="st0" d="M311.9,488.7c0-64.2,0-128.4,0-192.7c0-20.6-7.6-37.6-24.6-49.6c-9-6.4-19.2-9.9-30.4-10.1
			c-6-0.1-12,0.1-18-0.1c-3.2-0.1-4.6,0.8-4.7,4.3c-0.2,11-0.3,11-11.3,11c-8.7,0-17.4,0-26.1,0c-2,0-4-0.1-4.4,2.8
			c-1.8,11.1-8.6,18.7-18,23.6c-21.2,10.9-42.8,11-63.8-0.7c-8.9-4.9-15.3-12.3-16.9-22.9c-0.3-2.2-1.8-2.7-3.7-2.8
			c-2.7,0-3.9-1.4-3.8-4c0.2-9.3-0.6-18.5,0.6-27.8c1.4-10.7,10.2-18.9,21-18.9c35.1-0.1,70.2,0,105.3,0c4.8,0,9.1,1.5,12.5,4.7
			c2.1,1.9,4.3,2.4,7,2.4c12.3,0.1,24.5-0.8,36.7,1.5c22.2,4.2,40,15.3,53.6,33.2c3.1,4.1,3,4.1,6.1,0c15.4-20,35.5-31.6,60.8-34.2
			c9.7-1,19.4-0.4,29.1-0.6c3,0,5.5-0.6,7.8-2.7c3.4-3.1,7.6-4.4,12.2-4.4c35.1,0,70.2-0.1,105.3,0c12,0,20.5,9,21.4,22.7
			c0.5,8,0.1,16,0.2,24c0,2.6-1.1,4-3.8,4.1c-1.9,0-3.3,0.5-3.7,2.7c-2.3,13.2-11.1,20.9-22.6,25.9c-17.9,7.8-36.1,7.7-54-0.1
			c-11.2-4.9-19.8-12.6-22.1-25.3c-0.5-2.9-2.2-3.3-4.5-3.3c-10.4,0-20.8,0-31.3,0c-6,0-6.3-0.3-6.3-6.3c-0.1-10.1,1.2-9.1-9.3-9
			c-7,0-14-0.4-20.9,0.8c-25.1,4.3-44.3,24.9-46.8,50c-0.5,4.7-0.6,9.4-0.6,14.1c0,127,0,254,0,381c0,6.9,0,6.9,7.1,6.9
			c9.4,0,18.8,0.1,28.3-0.1c4-0.1,5.7,1.1,5.6,5.3c-0.2,8.1-0.2,16.3,0,24.4c0.1,3.6-1,5-4.9,5c-33.3-0.1-66.5-0.1-99.8,0
			c-3.8,0-5-1.3-4.9-5c0.2-8.3,0.2-16.6,0-24.8c-0.1-3.7,1.4-5,5.1-5c10,0.2,20,0.1,30,0c5.8,0,5.8,0,5.8-6
			C311.9,618.3,311.9,553.5,311.9,488.7z M143.2,251.6c-10.8,0-21.7-0.1-32.5,0c-3.9,0-4.7,1.3-2.9,4.8c2.5,4.9,6.5,8.3,11.3,10.7
			c12.5,6.3,25.6,6.6,38.8,3.4c8.3-2,15.9-5.9,20.1-14c1.9-3.7,1.2-4.8-3.1-4.8C164.3,251.5,153.7,251.6,143.2,251.6z M508.7,251.6
			c-10.6,0-21.1,0-31.7,0c-4.7,0-5.4,1.1-3.2,5.3c2.3,4.4,6.1,7.5,10.4,9.8c12.5,6.7,25.8,6.9,39.2,3.8c8.1-1.9,15.6-5.7,20-13.5
			c2.3-4,1.5-5.4-3-5.5C529.8,251.5,519.3,251.6,508.7,251.6z"/>
	</g>
	<g>
		<path class="st0" d="M426.5,375.8c0-64.2,0-128.4,0-192.7c0-20.6-7.6-37.6-24.6-49.6c-9-6.4-19.2-9.9-30.4-10.1
			c-6-0.1-12,0.1-18-0.1c-3.2-0.1-4.6,0.8-4.7,4.3c-0.2,11-0.3,11-11.3,11c-8.7,0-17.4,0-26.1,0c-2,0-4-0.1-4.4,2.8
			c-1.8,11.1-8.6,18.7-18,23.6c-21.2,10.9-42.8,11-63.8-0.7c-8.9-4.9-15.3-12.3-16.9-22.9c-0.3-2.2-1.8-2.7-3.7-2.8
			c-2.7,0-3.9-1.4-3.8-4c0.2-9.3-0.6-18.5,0.6-27.8c1.4-10.7,10.2-18.9,21-18.9c35.1-0.1,70.2,0,105.3,0c4.8,0,9.1,1.5,12.5,4.7
			c2.1,1.9,4.3,2.4,7,2.4c12.3,0.1,24.5-0.8,36.7,1.5c22.2,4.2,40,15.3,53.6,33.2c3.1,4.1,3,4.1,6.1,0c15.4-20,35.5-31.6,60.8-34.2
			c9.7-1,19.4-0.4,29.1-0.6c3,0,5.5-0.6,7.8-2.7c3.4-3.1,7.6-4.4,12.2-4.4c35.1,0,70.2-0.1,105.3,0c12,0,20.5,9,21.4,22.7
			c0.5,8,0.1,16,0.2,24c0,2.6-1.1,4-3.8,4.1c-1.9,0-3.3,0.5-3.7,2.7c-2.3,13.2-11.1,20.9-22.6,25.9c-17.9,7.8-36.1,7.7-54-0.1
			c-11.2-4.9-19.8-12.6-22.1-25.3c-0.5-2.9-2.2-3.3-4.5-3.3c-10.4,0-20.8,0-31.3,0c-6,0-6.3-0.3-6.3-6.3c-0.1-10.1,1.2-9.1-9.3-9
			c-7,0-14-0.4-20.9,0.8c-25.1,4.3-44.3,24.9-46.8,50c-0.5,4.7-0.6,9.4-0.6,14.1c0,127,0,254,0,381c0,6.9,0,6.9,7.1,6.9
			c9.4,0,18.8,0.1,28.3-0.1c4-0.1,5.7,1.1,5.6,5.3c-0.2,8.1-0.2,16.3,0,24.4c0.1,3.6-1,5-4.9,5c-33.3-0.1-66.5-0.1-99.8,0
			c-3.8,0-5-1.3-4.9-5c0.2-8.3,0.2-16.6,0-24.8c-0.1-3.7,1.4-5,5.1-5c10,0.2,20,0.1,30,0c5.8,0,5.8,0,5.8-6
			C426.5,505.4,426.5,440.6,426.5,375.8z M257.8,138.6c-10.8,0-21.7-0.1-32.5,0c-3.9,0-4.7,1.3-2.9,4.8c2.5,4.9,6.5,8.3,11.3,10.7
			c12.5,6.3,25.6,6.6,38.8,3.4c8.3-2,15.9-5.9,20.1-14c1.9-3.7,1.2-4.8-3.1-4.8C278.9,138.6,268.4,138.6,257.8,138.6z M623.4,138.6
			c-10.6,0-21.1,0-31.7,0c-4.7,0-5.4,1.1-3.2,5.3c2.3,4.4,6.1,7.5,10.4,9.8c12.5,6.7,25.8,6.9,39.2,3.8c8.1-1.9,15.6-5.7,20-13.5
			c2.3-4,1.5-5.4-3-5.5C644.5,138.6,633.9,138.6,623.4,138.6z"/>
	</g>
</g>
</svg>
