<?xml version="1.0" encoding="utf-8"?>
<!-- Generator: Adobe Illustrator 23.1.1, SVG Export Plug-In . SVG Version: 6.00 Build 0)  -->
<svg version="1.1" id="Camada_1" xmlns="http://www.w3.org/2000/svg" xmlns:xlink="http://www.w3.org/1999/xlink" x="0px" y="0px"
	 viewBox="0 0 800 800" style="enable-background:new 0 0 800 800;" xml:space="preserve">
<style type="text/css">
	.st0{fill:#E99500;}
	.st1{fill:#E99500;stroke:#E99500;stroke-width:8.1914;stroke-miterlimit:10;}
	.st2{fill:#E99500;stroke:#E99500;stroke-width:4.3556;stroke-miterlimit:10;}
</style>
<g>
	<path class="st0" d="M218.9,680.1c0.8-16,6.6-30,17-42.1c6.7-7.7,14.5-14,23-19.4c3.2-2,5.2-4.5,6.6-8.1
		c17.7-48.4,35.4-96.7,53.2-145.1c1.5-4.1,2.3-8.2,2.2-12.6c-0.1-35.7-0.2-71.5,0.1-107.2c0-5.4-1.4-7.1-6.9-7
		c-17.8,0.3-35.6,0.3-53.3,0c-4.8-0.1-6.5,1.5-6,6.2c0.3,3.2,0.1,6.5,0,9.7c-0.2,9.1-5.9,15.3-14.4,15.6
		c-9.2,0.3-15.8-5.6-16.4-14.9c-0.3-4.1-0.1-8.3-0.1-12.4c0-2.6-0.8-3.7-3.6-4.2c-9.5-1.6-15-8.3-14.2-16.5
		c0.9-8.8,7.4-14.2,17.2-14.2c30,0,60,0,90,0c7.5,0,7.5,0,7.5-7.8c0-10.2-0.1-20.5,0.1-30.7c0.1-3.7-1.1-5.2-4.9-5.1
		c-6.5,0.2-12.9,0.1-19.4,0c-2.9,0-4.3,1.1-4.2,4.1c0.1,3.8,0.1,7.5,0,11.3c-0.4,9.3-6.3,15.6-14.8,16.2
		c-8.4,0.5-14.9-5.2-16.1-14.6c-0.5-4.3-0.4-8.6-0.5-12.9c-0.1-2.5-1-3.7-3.7-4.2c-9.3-1.7-14.6-8.4-13.8-16.8
		c0.8-8.2,7.7-13.9,17-13.9c20.7-0.1,41.3-0.2,62,0.1c4.5,0.1,6.7-1.8,8.8-5.4c17.9-30.3,36-60.5,54-90.7c3.7-6.2,8.4-10.1,16-9.7
		c7.1,0.4,10.8,5.3,14,10.5c17.4,28.9,34.8,57.9,51.7,87.1c3.5,6,7.1,8.5,14.3,8.3c19.7-0.6,39.5-0.3,59.3-0.1
		c7.8,0,13.8,4.7,15.6,11.6c1.7,6.3-1,13.2-6.7,16.8c-2,1.3-4.2,2.4-6.5,2.2c-5.2-0.5-6,2.3-5.7,6.5c0.2,3.2,0.1,6.5,0,9.7
		c-0.2,8.9-6.1,15.1-14.6,15.4c-8.7,0.3-15.4-5.7-16.1-14.7c-0.3-4.1-0.2-8.3-0.1-12.4c0.1-3.2-1.1-4.5-4.4-4.5
		c-6.6,0.1-13.3,0.1-19.9,0c-3,0-4.2,1.2-4.1,4.2c0.1,11.7,0.1,23.3,0,35c-0.1,4.9,3.1,4.3,6.2,4.3c30.9,0,61.8,0,92.7,0
		c7.2,0,12.6,2.7,15.7,9.3c4.4,9.5-1.8,20.4-12.5,21.4c-4,0.4-5.4,1.7-5.1,5.6c0.2,3.4,0.1,6.8,0,10.2c-0.4,8.9-6.5,15.4-14.6,15.8
		c-8.9,0.5-15.1-4.8-16.3-14.2c-0.5-3.5-0.7-7.2-0.5-10.7c0.3-4.7-1.1-6.7-6.3-6.6c-17.8,0.3-35.6,0.2-53.3,0c-4.4,0-6,1.3-5.9,5.8
		c0.2,18,0.1,35.9,0.1,53.9c0,18.7,0,37.4,0,56c0,3.3,0.4,6.4,1.6,9.5c18.5,49.4,36.9,98.9,55.2,148.4c1.3,3.6,4.1,5.3,6.9,7.2
		c15.2,10.1,28,22.4,35.1,39.7c2.8,6.7,3.3,13.9,4.3,21C460.4,680.1,339.6,680.1,218.9,680.1z M496.6,598c-3.6-9.9-7-18.7-10.1-27.7
		c-1.2-3.4-3.3-5.7-6.5-7.4c-25.1-14.3-50.2-28.7-75.2-43.2c-3.4-2-6-2-9.4-0.1c-22.5,13.1-44.9,26.3-67.8,38.6
		c-9,4.9-14.8,11-17.3,20.9c-1.5,6.1-4.2,11.9-6.6,18.5C368.3,579,431.8,578.9,496.6,598z M447.1,392.8c0-12.6-0.1-25.1,0.1-37.7
		c0.1-4.4-0.7-5.5-5-3.2c-23.1,12.5-46.2,24.8-69.4,37c-3.9,2.1-3.3,3.3,0,5.1c23.2,13.2,46.5,26.5,69.6,39.9
		c3.9,2.3,4.8,1.3,4.7-2.9C447,418.3,447.1,405.6,447.1,392.8z M351.8,436.6c0,4.3,0.1,8.6,0,12.9c-0.1,3,0.9,5,3.7,6.5
		c13.6,7.6,27.2,15.4,40.7,23.2c2.7,1.6,4.8,1.4,7.4-0.1c7.6-4.5,15.2-8.9,22.9-13.1c3.8-2.1,4.6-3.4,0.1-5.8
		c-9.6-5.2-19.1-10.8-28.6-16.2c-13.7-7.8-27.5-15.6-41.1-23.5c-4.1-2.4-5.3-1.5-5.1,3.1C352,427.9,351.8,432.3,351.8,436.6z
		 M400,233.6c10,0,20.1-0.1,30.1,0c3.7,0,5.6-0.3,3-4.6c-10.3-17-20.5-34.1-30.6-51.3c-2.1-3.5-3.2-3.4-5.2,0
		c-10.1,17.2-20.3,34.3-30.6,51.3c-2.1,3.4-1.7,4.7,2.5,4.6C379.6,233.5,389.8,233.6,400,233.6z M394.9,264.4
		c-0.1,0.3-0.3,0.6-0.4,0.9c16.4,9.8,32.8,19.6,49.2,29.4c2.7,1.6,3.5,0.3,3.4-2.3c0-7.7-0.1-15.4,0.1-23.1c0.1-3.8-1.3-5-5-5
		C426.4,264.5,410.6,264.4,394.9,264.4z M403.4,307.9c0.1-0.4,0.2-0.7,0.3-1.1c-16.3-9.6-32.7-19.1-49-28.7c-3-1.8-2.8,0.4-2.8,2.3
		c0,7.7,0.1,15.4,0,23.1c-0.1,3.3,1.4,4.4,4.5,4.3c8.8-0.1,17.6,0,26.4,0C389.6,307.9,396.5,307.9,403.4,307.9z M399.5,339.8
		c-0.1-0.3-0.2-0.7-0.3-1c-14.6,0-29.3,0-43.9,0c-3,0-3.5,1.8-3.5,4.2c0,5.9,0.1,11.8,0,17.8c-0.1,3.2,0.9,3.8,3.8,2.3
		c7.2-3.9,14.6-7.7,21.9-11.6C384.8,347.6,392.1,343.7,399.5,339.8z M332.3,520.1c12-6.9,22.8-13.1,33.7-19.3
		c2.2-1.3,1.7-2.4-0.1-3.5c-6.1-3.5-12.1-6.9-18.2-10.4c-1.8-1-2.8-0.8-3.6,1.3C340.3,498.5,336.5,508.6,332.3,520.1z M467.8,520.1
		c-4.2-11.4-8-21.4-11.7-31.4c-0.7-1.8-1.8-2.7-3.7-1.6c-6.8,3.8-13.5,7.7-21.1,12C443.9,506.3,455.2,512.9,467.8,520.1z"/>
</g>
</svg>
