<?xml version="1.0" encoding="utf-8"?>
<!-- Generator: Adobe Illustrator 23.1.1, SVG Export Plug-In . SVG Version: 6.00 Build 0)  -->
<svg version="1.1" id="Camada_1" xmlns="http://www.w3.org/2000/svg" xmlns:xlink="http://www.w3.org/1999/xlink" x="0px" y="0px"
	 viewBox="0 0 800 800" style="enable-background:new 0 0 800 800;" xml:space="preserve">
<style type="text/css">
	.st0{fill:#E99500;}
	.st1{fill:#E99500;stroke:#E99500;stroke-width:8.1914;stroke-miterlimit:10;}
	.st2{fill:#E99500;stroke:#E99500;stroke-width:4.3556;stroke-miterlimit:10;}
</style>
<g>
	<path class="st0" d="M266.8,349.5c-2.9-6.1-7.3-7.6-13.3-7.3c-20.9,0.9-39.4-4.9-53.9-20.7c-10.9-11.8-16.7-25.8-16.9-41.9
		c-0.2-20.7-0.1-41.4,0-62.1c0-8.5,3.3-11.9,12-11.8c9.8,0.1,19.6-0.7,29.3,1.5c29.1,6.7,49.7,32.1,49.9,61.9
		c0.1,17.7,0.1,35.5,0,53.2c0,3.3,0.8,6,2.9,8.6c8.5,10.7,19.4,17.4,33.2,18.6c1.2,0.1,2.8,0.6,3.5-0.5c1-1.5-0.7-2.5-1.4-3.6
		c-13.8-20.4-21.5-42.8-20.9-67.6c1.1-47.9,23.2-83.3,65.6-105.1c45.2-23.2,100.5-13.4,136,23c20.4,21,31.7,46.2,33.4,75.6
		c1.6,27.3-5.7,52-21,74.4c-0.7,1-2.1,1.9-1.3,3.2c0.8,1.2,2.3,0.6,3.5,0.5c14.9-1.4,26.3-8.7,34.9-20.8c1.4-1.9,1.1-4.1,1.1-6.3
		c0-17,0-33.9,0-50.9c0.1-38.2,27.9-65.9,66.2-65.9c5,0,10-0.1,14.9,0c5.9,0.2,9.9,3.1,10,8.9c0.6,24.7,2.7,49.6-1,74.1
		c-4.8,32.2-30.9,53-64,53.5c-3,0.1-5.9,0-8.9,0c-1.1,0-2.2-0.1-3.3,0.2c-3.2,0.8-5.7,3.6-5.8,6c-0.1,2.6,3.5,1.3,5.4,1.4
		c18.6,0.6,33.3,8.3,43.3,24.2c8.1,12.8,8.4,27.1,6.9,41.5c-0.4,4.1-3.3,6.6-7.4,7.4c-1.5,0.3-3.1,0.5-4.6,0.5
		c-16.8-0.2-33.6,0.6-50.4-0.5c-25.5-1.6-45.6-22.3-46.4-48c-0.2-5.6-0.2-5.7-5.5-4.6c-22.1,4.7-34.6,20-37.7,43.7
		c-2.6,19.5-0.6,39.2-1,58.8c-0.1,2.6,1.1,3.3,3.6,3.8c12.8,2.4,21.7,11.3,23.3,23c1.8,12.4-4.2,23.5-16.1,29.3
		c-2.5,1.2-3.2,2.4-2.5,5c2.1,7.5,0.4,14.5-3.7,20.9c-1.4,2.3-1.6,3.9-0.1,6.3c6.4,10,6.4,20.3-0.2,30.2c-1.5,2.2-1.2,3.8,0.1,5.9
		c6,9.3,6.5,19.1,1,28.7c-5.4,9.4-13.9,13.7-24.8,13.7c-34.6-0.1-69.1-0.2-103.7,0.1c-10.7,0.1-20.2-2.6-29.2-8.2
		c-9.1-5.7-18.5-11-27.6-16.6c-2.8-1.7-5.6-2.4-8.8-2.4c-29.6,0.1-59.2,0-88.7,0c-8.9,0-12.4-3-12.4-11.9
		c-0.1-37.4-0.1-74.7,0-112.1c0-9,3.6-12.1,12.8-12.1c40.8,0,81.6-0.1,122.3,0.1c4.1,0,7-1.2,9.8-4.1c6-6.3,12.3-12.3,18.4-18.5
		c3.1-3.2,6.7-4.7,11.3-4.6c6.7,0.2,13.4,0,20.1,0.1c2.1,0,3.8-0.3,3.8-2.9c-0.3-13.3,1.5-26.8-2.1-40c-5.4-19.5-17-32.5-37.6-36.5
		c-3.3-0.6-4.4,0.2-4.6,3.6c-1.6,30.3-21.5,49.3-52.3,49.8c-14.5,0.2-29,0.1-43.4,0c-10.2-0.1-13.1-3.3-13.2-13.6
		c-0.2-11.1-0.2-22.1,5.3-32.3c8.9-16.5,22.5-25.7,41.3-27.2C259.7,350.1,263.1,349.8,266.8,349.5z M408.6,413.1
		c7.5,0,14.9-0.1,22.4,0c3.2,0.1,4.7-0.7,5-4.3c0.4-5.4,1.9-10.7,3.9-15.8c6.3-15.6,17.4-27.4,30.4-37.6c36.6-28.9,47.8-82,26-122.6
		c-30.1-56.2-101.6-70.9-150.8-30.2c-27.7,22.9-39,53.3-34.5,89c3.4,27.1,16.8,48.6,38.1,65.6c16.9,13.4,29.7,29.7,32.3,52.1
		c0.3,2.8,1.9,3.9,4.7,3.9C393.7,413,401.1,413.1,408.6,413.1z M246.8,544.2c0,14.8,0.1,29.6-0.1,44.4c0,3.7,1.2,5,4.9,4.9
		c5-0.2,10,0.2,14.9-0.1c6.3-0.3,11.9,1.4,17.2,4.8c9.3,5.9,19,11.3,28.4,17.2c5.9,3.6,12,5.6,19,5.2c6.5-0.3,13.1-0.2,19.6,0
		c3.2,0.1,4.6-0.7,3.9-4.2c-1.5-7.1,0.5-13.6,4.3-19.5c1.3-1.9,1.6-3.2,0.2-5.3c-6.7-10.1-6.8-20.4-0.2-30.6c1.3-2,1.4-3.4,0.2-5.5
		c-9.4-16.4-4.8-32.2,11.9-40.6c1.2-0.6,3.1-1,2.4-2.8c-1-2.5,0.4-6-2.6-7.5c-4.1-2.1-11.2,0.2-13.8,4.2
		c-8.3,12.4-16.6,24.9-24.9,37.3c-4.5,6.7-10.7,11.5-18.6,12c-13.7,0.8-27.4,0.4-41.1,0.2c-4.5-0.1-7.8-3.8-8.3-8.1
		c-0.5-4.4,2-8.4,6.2-9.9c2.2-0.8,4.6-0.9,6.9-0.9c9.7,0,19.3-0.2,28.9,0.1c5.2,0.1,8.8-1.8,11.6-6.2c8.6-13.2,17.7-26,26-39.4
		c4.1-6.5,9.2-8.9,16.6-8.7c12.8,0.3,25.5,0.1,38.3,0.1c4.1,0,7.5-1.1,8.9-5.3c2.1-5.7-1.7-11.2-8-11.3c-18.7-0.2-37.4,0-56-0.1
		c-2.6,0-4.3,1.2-6,2.9c-6.2,6.3-12.6,12.5-18.8,18.9c-3.6,3.8-7.7,5.4-12.9,5.4c-17.9-0.2-35.8,0-53.7-0.1c-4,0-5.5,1.1-5.4,5.3
		C246.9,515.3,246.8,529.8,246.8,544.2z M227.6,544.4c0-14.6-0.1-29.2,0.1-43.8c0-3.9-1.4-5.1-5.2-5.1c-11.2,0.2-22.4,0.2-33.6,0
		c-3.9-0.1-5.1,1.4-5.1,5.2c0.1,29.2,0.1,58.5,0,87.7c0,3.9,1.5,5.1,5.2,5.1c11.2-0.2,22.4-0.2,33.6,0c3.9,0.1,5.1-1.4,5-5.2
		C227.5,573.7,227.6,559,227.6,544.4z M409,567.6c-8.6,0-17.1,0-25.7,0c-6.1,0-10.1,3.5-10.1,8.6c0,4.9,3.9,8.5,9.7,8.5
		c17.1,0.1,34.2,0.1,51.3,0c6.2,0,10.1-3.7,9.9-8.9c-0.2-5-3.9-8.2-10-8.2C425.8,567.6,417.4,567.6,409,567.6z M408.6,548.4
		c8.4,0,16.8,0,25.2,0c6.5,0,10.2-3,10.4-8.1c0.2-5.1-3.8-8.7-10.3-8.9c-4.8-0.2-9.6-0.1-14.5-0.1c-12,0-24-0.1-35.9,0.1
		c-6.3,0.1-10.2,3.6-10.2,8.6c0,5.3,3.6,8.4,10.1,8.4C391.8,548.5,400.2,548.4,408.6,548.4z M408.9,603.9c-8.5,0-17.1-0.1-25.6,0
		c-6.4,0-10.2,3.3-10.1,8.4c0.1,5,3.8,8.1,9.9,8.2c17.1,0.1,34.2,0.1,51.3,0c6.1,0,9.8-3.2,9.8-8.2c0.1-5.2-3.7-8.4-10.1-8.4
		C425.7,603.8,417.3,603.9,408.9,603.9z M426.7,512.2C426.7,512.2,426.7,512.2,426.7,512.2c7.9,0,15.8,0,23.8,0
		c8.1,0,11.6-2.5,11.6-8.2c0-5.8-3.6-8.4-11.4-8.4c-8.5,0-17.1,0.1-25.6-0.1c-3.3-0.1-5.9,0.7-8.5,2.9c-4.6,3.9-10.2,5.8-16.3,5.8
		c-1.7,0-3.4,0-5.1,0c-1.2,0-2.7-0.2-3.2,1.2c-0.5,1.3,0.4,2.4,1,3.4c1.7,2.6,4.3,3.3,7.3,3.3C409,512.2,417.9,512.2,426.7,512.2z
		 M408.5,449.4c4.8,0,9.6,0.1,14.4,0c14.2-0.3,11.9,2.8,12.2-12.8c0.1-3.1-1-4.4-4.3-4.4c-14.7,0.1-29.5,0.1-44.2,0
		c-3.1,0-4.6,0.9-4.4,4.2c0.2,2.6,0.2,5.3,0,7.9c-0.3,3.8,1,5.3,5,5.1C394.2,449.2,401.4,449.4,408.5,449.4z M247,322
		c-9.6-9.4-16.7-20.2-21.8-32.4c-0.7-1.7-2-2.1-3.7-2.4c-5.5-1-10.9-2.6-15.7-5.5c-1-0.6-2.1-1.9-3.3-1c-1.1,0.8-0.6,2.3-0.4,3.5
		c1.3,8.6,4.6,16.5,10.4,23C221.6,317.6,232.9,323.1,247,322z M570.6,322.3c6.4,0.8,12-0.4,17.3-2.8c15.4-6.8,24.7-18.4,27.3-35.1
		c0.2-1.2,0.6-2.7-0.4-3.5c-1.2-0.9-2.3,0.4-3.3,0.9c-4.7,2.6-9.7,4.3-14.9,5.2c-2.7,0.4-4,1.7-5,4.1c-3.8,9.3-9.4,17.5-15.9,25.1
		C574,318,571.7,319.4,570.6,322.3z M563,300.7c3.2-2.9,5.3-6.2,7.4-9.6c10-16.6,9.7-34.9,9.2-53.3c0-0.8,0-1.9-1-1.8
		c-0.8,0.1-1.6,0.8-2.3,1.4c-6.8,6.6-11.4,14.4-12.9,23.7C561.3,274.2,563,287.4,563,300.7z M254.7,301.5c0-11.9,0.2-22.8,0-33.6
		c-0.2-11.7-4.8-21.7-13.1-30c-0.8-0.8-1.5-2.1-3.1-1.5C237,259.4,237.3,281.9,254.7,301.5z M615.5,239
		c-0.4-15.6,2.4-14.1-11.5-14.1c-4,0-5.3,1.9-5.3,5.8c0.1,10.3-0.1,20.5-0.1,30.8c0,1.6-1.6,3.8,0.1,4.7c1.7,0.9,3.4-1,5-1.9
		c0.7-0.4,1.3-0.9,1.9-1.4C614,256.2,616.3,247.3,615.5,239z M218.5,243.2c0-2.2,0-4.3,0-6.5c-0.2-11.7,2.5-11.9-12.3-11.9
		c-3.2,0-4.5,1-4.4,4.3c0.2,5-0.1,9.9,0.1,14.9c0.5,9.6,5.5,16.5,13.6,21.4c2.8,1.7,4,1.1,3.6-2.2
		C218.5,256.5,218.3,249.9,218.5,243.2z M523.2,369.5c-4.6-1-6,1.3-5.7,5.7c0.3,3.8,1.1,7.4,2.6,10.8c4.8,10.3,12.8,16.5,24.3,17.8
		c1.3,0.1,3.9,0.9,3.4-1.6c-0.7-3.5-0.9-7.6-4.6-9.7c-7.1-4.1-11.3-10.4-13.4-18.2C529,370.7,527.2,368.6,523.2,369.5z M299.6,375.2
		c-0.4-1.5,1-3.9-1.5-5.4c-3.6-2.1-9.1,0-10.4,4c-2.3,7.1-5.5,13.6-12.2,17.6c-2.8,1.7-4.2,3.9-5.1,6.9c-1.6,5.2-1,6.1,4.5,5.2
		C288.1,401.6,299.1,389.3,299.6,375.2z M239.9,376.6c8.1,0,15.3,0.1,22.6-0.1c2.5-0.1,4.2-1.8,5.3-4c0.9-1.9,0.4-3-1.7-3.1
		C256.9,369,248,369.2,239.9,376.6z M577.8,376.7c-7.8-6.7-15.7-7.7-24.1-7.3c-1.6,0.1-3.9-0.8-4.5,1.2c-0.6,1.9,1.2,3.3,2.6,4.6
		c1.1,1,2.4,1.5,3.8,1.5C562.6,376.7,569.5,376.7,577.8,376.7z M240.1,396.4C240.1,396.5,240.1,396.5,240.1,396.4
		c-2.8,0.1-5.6,0-8.4,0.1c-2.3,0.1-2.7,1.7-2.7,3.6c0,1.9,0.3,3.6,2.5,3.7c5,0.1,10,0.2,14.9,0c3.3-0.2,3.7-3.3,3.7-5.6
		c0.1-2.6-2.5-1.6-4-1.7C244.1,396.3,242.1,396.4,240.1,396.4z M577.3,396.5C577.3,396.5,577.3,396.4,577.3,396.5c-2,0-4-0.1-6,0
		c-1.4,0-3.1-0.5-3.9,0.7c-1,1.6,0.3,3.3,0.9,4.8c0.6,1.5,1.9,1.9,3.4,1.9c4.3,0,8.7,0,13,0c2.5,0,3.7-1.2,3.6-3.7
		c0-2.4-1.1-3.8-3.6-3.8C582.3,396.5,579.8,396.5,577.3,396.5z"/>
	<path class="st0" d="M390.1,343.4c0-10.4,0-20.9,0-31.3c0-6.1,0-6.1-6.3-6.1c-6.2,0-12.5,0-18.7,0c-4.4,0-8-1.5-10-5.5
		c-2.1-4.2-0.7-7.8,1.9-11.2c20.4-26.1,40.7-52.3,61.1-78.5c3.7-4.7,7.4-6,11.7-4.5c4.4,1.6,6.5,5,6.5,10.7c0,20.5,0,41.1,0,61.6
		c0,9.1-0.8,8.1,8.4,8.2c2.5,0,5,0,7.5,0c4.2-0.1,7.7,1.2,9.8,5c2.2,3.9,1.2,7.5-1.1,10.9c-6.2,9.3-12.4,18.7-18.6,28
		c-11,16.6-22.1,33.2-33.2,49.7c-3.7,5.6-7.4,7.5-11.8,6.3c-4.9-1.4-7.3-5.3-7.3-12.1C390.1,364.3,390.1,353.9,390.1,343.4z
		 M417.2,244.8c-0.4-0.1-0.8-0.2-1.1-0.3c-10.7,13.8-21.5,27.7-32.9,42.4c5.6,0,9.8,0,14,0c8.7,0.1,12.1,3.5,12.1,12.2
		c0,13.7,0,27.4,0,41c0,1.4-0.6,3.1,0.8,4.7c7.4-11.1,14.8-22.1,22-33.1c1-1.5,3.2-3.2,2.5-4.7c-0.9-2-3.6-0.9-5.5-0.9
		c-8.3-0.2-11.9-3.7-12-12c-0.1-12,0-23.9,0-35.9C417.2,253.7,417.2,249.2,417.2,244.8z"/>
</g>
</svg>
