<?xml version="1.0" encoding="utf-8"?>
<!-- Generator: Adobe Illustrator 23.1.1, SVG Export Plug-In . SVG Version: 6.00 Build 0)  -->
<svg version="1.1" id="Camada_1" xmlns="http://www.w3.org/2000/svg" xmlns:xlink="http://www.w3.org/1999/xlink" x="0px" y="0px"
	 viewBox="0 0 800 800" style="enable-background:new 0 0 800 800;" xml:space="preserve">
<style type="text/css">
	.st0{fill:#E99500;}
	.st1{fill:#E99500;stroke:#E99500;stroke-width:8.1914;stroke-miterlimit:10;}
	.st2{fill:#E99500;stroke:#E99500;stroke-width:4.3556;stroke-miterlimit:10;}
</style>
<g>
	<path class="st2" d="M160.3,373.3c2.2-3.8,5.5-5.1,9.8-5.1c9.2,0.2,18.4-0.1,27.6,0.1c3.5,0.1,4.9-1.2,5.5-4.6
		c1.7-10.2,4.4-20.1,8-29.8c1.2-3.1,0.6-4.7-2.3-6.3c-8.1-4.4-16-9.1-23.9-13.8c-6.4-3.8-7.6-7.6-4.1-13.9c7.4-13,14.8-26,22.4-38.9
		c3.4-5.8,7.6-6.9,13.4-3.7c8.4,4.7,16.8,9.6,25.1,14.6c2.5,1.5,3.9,1.3,5.8-1c6.9-8.3,14.5-15.9,22.8-22.8c2.2-1.8,2.2-3.2,0.9-5.5
		c-4.9-8.2-9.6-16.4-14.3-24.7c-3.7-6.7-2.6-10.5,3.9-14.3c9.2-5.3,18.4-10.5,27.5-16c3.2-1.9,4.8-1.4,6.6,1.8
		c6.1,10.6,6.2,10.5-4.2,16.5c-3.9,2.2-7.8,4.7-11.8,6.7c-3.2,1.7-3.8,3.5-1.8,6.6c4.5,7.3,8.7,14.8,12.9,22.2
		c3.7,6.6,3.1,9.9-2.7,14.5c-11.9,9.4-22.6,20.1-32,32c-4.7,6-8.2,6.5-14.9,2.7c-7.4-4.3-14.9-8.5-22.2-12.9c-2.7-1.7-4.3-1.5-6,1.4
		c-3.7,6.7-7.5,13.3-11.5,19.8c-1.6,2.7-1.1,4,1.6,5.4c7.8,4.3,15.4,8.8,23.1,13.3c6.2,3.6,7.3,6.9,4.6,13.6
		c-5.7,14.3-9.5,29-11.7,44.2c-1,6.8-3.8,9.2-10.5,9.3c-8.7,0.1-17.5,0.1-26.2,0c-3.7-0.1-5.4,1-5.3,5c0.3,7.2,0.2,14.3,0,21.5
		c-0.1,3.8,1.3,4.9,4.9,4.8c8.9-0.2,17.8-0.1,26.7,0c6.4,0,9.5,2.6,10.3,9c2,15.2,6,29.9,11.6,44.2c3,7.6,1.9,10.4-5.3,14.5
		c-7.4,4.3-14.8,8.6-22.3,12.8c-2.6,1.4-3.2,2.7-1.5,5.4c3.9,6.4,7.6,12.9,11.2,19.4c1.7,3.1,3.4,3.5,6.3,1.7
		c7.3-4.4,14.8-8.7,22.2-13c6.9-3.9,10.1-3.3,14.9,2.8c9.4,12,20.1,22.6,32,31.9c5.7,4.5,6.4,8.1,2.7,14.5
		c-4.3,7.4-8.5,14.9-13,22.2c-1.7,2.8-1.8,4.6,1.4,6.3c6.6,3.5,13,7.3,19.5,11.2c2.4,1.5,4.2,1.8,5.5-1.2c0.9-2,2.4-2.2,4.2-1.1
		c0.1,0.1,0.3,0.1,0.4,0.2c3.6,2.4,10.3,3.6,10.1,7.2c-0.2,5.6-4.3,10.9-8.5,15.1c-2.7,2.7-6.3,2.6-9.6,0.7
		c-13.5-7.8-27.1-15.5-40.5-23.4c-5.5-3.3-6.4-7.4-3.2-13.1c4.7-8.3,9.4-16.5,14.3-24.7c1.5-2.5,1.8-4.1-0.8-6.2
		c-8-6.5-15.4-13.7-21.8-21.7c-2.6-3.2-4.7-3-7.8-1.1c-7.7,4.7-15.6,9.2-23.5,13.6c-6.4,3.6-10.2,2.4-14-3.9
		c-7.5-12.8-14.9-25.6-22.2-38.5c-3.4-5.9-2.2-10.1,3.8-13.7c8-4.8,16.1-9.5,24.3-14c3-1.6,3.5-3.2,2.3-6.3
		c-3.6-9.5-6.2-19.3-7.9-29.3c-0.6-3.6-2.3-4.7-5.6-4.6c-8.4,0.1-16.8-0.1-25.3,0.1c-4.8,0.1-9-0.9-12.1-4.8
		C160.3,410.1,160.3,391.7,160.3,373.3z"/>
	<path class="st2" d="M494.6,472.7c-3,0-4.5,0-6.1,0c-19.5,0-39,0.1-58.5-0.1c-4.6-0.1-5.9,1.5-5.7,5.9c0.3,6.7,0.2,13.4,0,20.1
		c-0.1,2.8,0.9,4.5,3.3,6c23.2,13.9,35.3,34.6,36.6,61.5c0.4,9.5-1.5,18.9-5.1,27.8c-3.1,7.6-9.6,9-15.5,3.2
		c-12.2-12-24.4-24.1-36.3-36.4c-3.4-3.6-5.3-3.2-8.3,0.2c-4.6,5.1-9.5,9.9-14.5,14.6c-2.6,2.4-2.5,3.9,0,6.3
		c11.7,11.5,23.2,23.1,34.8,34.7c0.9,0.9,1.8,1.7,2.6,2.7c5.6,6.2,4.4,12.6-3.5,15.4c-24.4,8.8-47.7,6.3-68.8-9
		c-36-26.2-40.1-75.8-9.3-108.6c2.3-2.5,3.4-4.9,3.3-8.2c-0.2-10.3-0.2-20.6,0-30.9c0.1-4.2-1.4-5.5-5.4-5.2
		c-3.4,0.3-6.9,0.1-10.3,0c-18.7-0.4-30.1-19.8-21-36.1c1.8-3.2,1.8-5.3-0.1-8.4c-4.5-7.7-4.5-15.8,0-23.6c1.7-2.9,1.9-5,0.1-8.1
		c-4.7-8-4.7-16.4,0.1-24.4c1.7-2.9,1.5-4.8-0.1-7.6c-9.3-16.5,2.1-36,21-36.4c3.7-0.1,7.5-0.1,11.2,0c2.9,0.1,4.3-0.8,4.3-4
		c-0.1-9-0.1-18.1,0-27.1c0-2.8-1.4-4.2-3.4-5.6c-20.2-15-30.1-35.3-30.1-60.3c0-8.5,1.8-16.7,5-24.6c3.1-7.9,9.7-9.3,15.7-3.3
		c12.3,12.2,24.6,24.4,36.7,36.7c2.7,2.7,4.3,3.1,7.1,0.1c4.8-5.3,10-10.3,15.2-15.2c2.5-2.4,2.5-4,0-6.5
		c-11.5-11.3-22.7-22.7-34.1-34c-1.2-1.2-2.5-2.4-3.6-3.7c-5-5.8-3.6-12.2,3.6-14.9c25.1-9.4,48.9-6.8,70.3,9.6
		c37.3,28.5,38.5,82,3.1,112.7c-6.8,5.9-6.6,11,0.4,16.6c8.6,6.9,17.3,13.8,25.9,20.8c2.3,1.9,4.6,2.8,7.6,2.8
		c8.7-0.1,17.5,0,26.2-0.1c1.3,0,3.2,0.7,3.9-0.7c0.8-1.5-1-2.4-1.8-3.4c-9.7-11.8-21.4-21.3-34.9-28.4c-3.5-1.8-4.8-3.6-2.4-7.1
		c0.5-0.8,0.8-1.7,1.2-2.5c4.2-8.5,4.2-8.6,12.6-3.6c39.7,23.8,63.5,58.7,67.6,104.6c5,56.2-17.9,99.9-65.5,130.5
		c-3.4,2.2-5,1.4-6.8-1.9c-5.5-10.1-5.6-10,3.7-16.3C477,492.2,486.1,483.9,494.6,472.7z M389.7,345.3L389.7,345.3
		c-20.4,0-40.8,0-61.3,0.1c-4.8,0-7.7,2.8-7.8,6.9c-0.1,4.4,2.8,7.4,7.7,7.6c4,0.2,8.1,0,12.2,0.1c13.8,0.2,11.7-2.1,12,12.3
		c0.1,3.6-1.3,5-4.9,4.9c-6.5-0.2-13.1-0.1-19.6,0c-4.4,0.1-7.1,3-7.3,7c-0.1,4.2,2.7,7.3,7.2,7.5c4.2,0.2,8.4,0,12.6,0.1
		c13.8,0.2,11.7-1.9,12,12.3c0.1,3.6-1.2,5-4.9,4.9c-6.5-0.2-13.1-0.2-19.6,0.1c-4.5,0.2-7.4,3.5-7.3,7.6c0.1,3.9,2.9,6.7,7.3,6.9
		c4.2,0.2,8.4,0.1,12.6,0.1c13.7,0.2,11.5-1.6,11.8,12c0.1,3.8-1.1,5.3-5.1,5.2c-6.4-0.2-12.8-0.2-19.2,0c-4.4,0.1-7.5,3.4-7.6,7.4
		c-0.1,4.1,2.8,6.9,7.5,7.2c0.9,0.1,1.9,0.1,2.8,0.1c39.3,0,78.6,0,117.9,0c6,0,6.2-0.2,6.2-6.4c0-32.6,0-65.2,0-97.7
		c0-6.1,0-6.1-6.4-6.1C428.9,345.3,409.3,345.3,389.7,345.3z M445.6,575.6c1.7-2.6,1.7-4.6,1.6-6.6c-0.3-23.5-10.7-40.9-31.8-51.4
		c-6-3-8.7-6.8-8.4-13.5c0.4-8.9,0-17.8,0.1-26.6c0.1-3.7-1.3-4.9-4.9-4.8c-12.3,0.2-24.6,0.2-36.9,0c-3.7-0.1-4.9,1.3-4.8,4.9
		c0.2,11.4-0.2,22.8,0.1,34.1c0.2,6.4-1.9,11-6.5,15.6c-17.1,16.5-22.2,36.7-14.1,59c8.1,22.4,25.2,34.1,48.7,36.4
		c3.5,0.3,7.3,1,11-1.2c-1.3-1.4-2.4-2.6-3.5-3.6c-10.5-10.5-20.9-20.9-31.4-31.4c-5.5-5.5-5.5-9.7,0-15.2
		c9.8-9.8,19.6-19.6,29.4-29.4c7-7,10.5-7,17.6,0.1C423.1,552.9,434.2,564.1,445.6,575.6z M374.8,178.2c0.5,2.2,2.1,3.1,3.2,4.3
		c10.3,10.4,20.7,20.7,31,31.1c5.7,5.8,5.6,9.8-0.1,15.6c-9.9,9.9-19.8,19.8-29.7,29.7c-6.4,6.4-10.1,6.5-16.5,0.1
		c-10.6-10.5-21.2-21.1-31.8-31.7c-0.8-0.8-1.5-2.4-3-1.6c-1.1,0.6-0.7,1.9-0.8,3c-0.9,22.3,7.9,39.7,26.9,51.5
		c4.7,2.9,6.7,6.5,6.6,11.8c-0.1,10.3,0.1,20.6-0.1,30.8c-0.1,3.8,1.1,5.3,5,5.2c12.1-0.2,24.3-0.2,36.5,0c3.8,0.1,5.2-1.1,5.2-5.1
		c-0.2-11.2,0-22.4-0.1-33.7c0-4.6,1.7-7.9,5.6-10.5c32.4-22.4,33.3-67.5,1.8-91.1C402.8,179.1,389.5,176.1,374.8,178.2z
		 M472.2,400.3c0,16.8,0.1,33.6-0.1,50.4c0,3.7,1.3,5,4.9,4.9c7.5-0.2,15-0.3,22.4,0c4.6,0.2,7-1.5,8.9-5.6
		c7.9-18,11.5-36.6,10.5-56.3c-0.8-15.1-4.5-29.4-10.6-43.2c-1.6-3.7-3.7-5.5-8.1-5.3c-7.6,0.4-15.3,0.3-22.9,0
		c-3.9-0.1-5.1,1.3-5.1,5.1C472.2,367,472.1,383.7,472.2,400.3z"/>
	<path class="st2" d="M604.3,384.9c-4.1,0-8.1,0-12.2,0c-7.3-0.1-10-2.4-11-9.8c-1.6-11.5-4.2-22.7-7.9-33.6
		c-1.2-3.5-2.6-7-3.9-10.5c-2.4-6.3-1.1-9.7,4.8-13.2c7.4-4.3,14.7-8.8,22.3-12.8c3.5-1.9,3.8-3.8,1.8-7c-3.7-6-7.2-12.1-10.5-18.2
		c-1.7-3.1-3.4-3.8-6.6-1.8c-7.4,4.6-15,8.9-22.6,13.2c-5.8,3.4-9.7,2.7-13.8-2.6c-9.5-12-20.2-22.8-32.3-32.3
		c-6-4.7-6.6-7.9-2.9-14.5c4.3-7.6,8.6-15.2,13.1-22.7c1.6-2.7,1.4-4.4-1.4-6c-6.5-3.6-13-7.4-19.4-11.2c-2.7-1.7-4.4-1.2-6,1.6
		c-4,7.2-8.3,14.3-12.3,21.5c-1.6,2.8-3.1,3.2-5.9,1.5c-10.9-6.2-11-6.2-4.8-17c4.5-7.9,9-15.7,13.6-23.5c4.1-6.9,7.8-8.1,14.6-4.2
		c12.7,7.2,25.4,14.5,38.1,21.9c6.3,3.7,7.4,7.6,3.8,14c-4.6,8.3-9.4,16.5-14.3,24.7c-1.5,2.5-1.4,3.9,1,5.8
		c8.3,6.9,15.9,14.4,22.8,22.8c1.8,2.1,3.1,2.3,5.5,0.9c7.9-4.8,15.8-9.3,23.8-13.9c7.4-4.2,11.3-3.3,15.4,4
		c7.2,12.4,14.4,24.8,21.5,37.3c3.9,6.9,2.9,10.7-4,14.7c-7.8,4.6-15.6,9.2-23.5,13.5c-3.1,1.7-3.7,3.4-2.5,6.7
		c3.6,9.6,6.2,19.6,8,29.8c0.6,3.3,2,4.4,5.3,4.4c9-0.2,18.1-0.1,27.1,0c8.1,0,10.7,2.6,10.8,10.5c0,14.5,0,29,0,43.5
		c0,7.6-3,10.7-10.8,10.9c-8.9,0.1-17.8,0.1-26.7,0c-3.5-0.1-5.3,1-5.9,4.8c-1.7,9.8-4.2,19.5-7.8,28.8c-1.2,3.2-0.8,4.9,2.4,6.7
		c8,4.3,15.7,8.9,23.5,13.5c6.8,4,7.9,7.9,4,14.7c-7.2,12.6-14.5,25.1-21.7,37.7c-3.9,6.6-7.7,7.7-14.3,4
		c-7.9-4.4-15.7-8.9-23.5-13.6c-3-1.8-5-2-7.5,1c-6.6,8.1-14.1,15.5-22.2,22.1c-2.4,2-2.2,3.5-0.8,5.8c4.8,8,9.5,16.1,14.1,24.2
		c3.8,6.6,2.7,10.6-3.8,14.4c-12.8,7.5-25.6,14.9-38.5,22.2c-5.8,3.3-10.1,2.2-13.5-3.4c-3.3-5.5-6.3-11.1-9.7-16.5
		c-1.7-2.8-1.2-4.6,1.7-5.9c0.1-0.1,0.3-0.1,0.4-0.2c10.3-6.1,10.4-6.2,16.5,4.3c1.7,2.9,3.1,3.2,5.8,1.5
		c6.4-3.9,12.9-7.6,19.4-11.2c2.9-1.6,3.3-3.2,1.6-6c-4.6-7.6-9-15.3-13.4-23c-3.4-5.9-2.7-9.6,2.6-13.8c12.3-9.7,23.3-20.7,32.9-33
		c3.9-5,7.4-5.8,13-2.7c7.9,4.4,15.7,8.9,23.5,13.5c2.6,1.6,4.4,1.7,6-1.3c3.7-6.7,7.5-13.3,11.4-19.8c1.7-2.7,0.9-4-1.6-5.4
		c-7.9-4.4-15.7-9-23.5-13.6c-5.8-3.4-6.9-6.7-4.5-12.9c5.8-14.5,9.9-29.5,12-45c0.9-6.4,3.9-8.9,10.4-9c9-0.1,18.1-0.1,27.1,0
		c3.2,0.1,4.4-1.1,4.4-4.3c-0.2-7.5-0.2-15,0-22.4c0.1-3.6-1.5-4.6-4.8-4.5C613.6,385,608.9,384.9,604.3,384.9z"/>
	<path class="st2" d="M320.5,290.4c1.2,0.1,1.8,1.2,2.4,2c8.2,10.1,8,9.8-1.6,18.4c-24.1,21.5-38,48.3-40.1,80.7
		c-2.8,43.6,13.8,78.6,48.4,105.1c2.7,2.1,3.3,3.8,1.1,6.4c-0.7,0.8-1.2,1.8-1.8,2.7c-5.9,8.3-4,9.1-12.9,1.8
		c-38-30.9-55.6-71.1-51.6-119.7c3.2-39,21.4-70.8,52.2-95.2C319.1,290.7,319.8,290.4,320.5,290.4z"/>
	<path class="st2" d="M240.9,393.1c-9.3-0.2-9.5-0.4-8.6-8.6c3.4-32.1,14.6-61,34.3-86.6c6.7-8.7,5.2-7.5,12.4-1.4
		c6.1,5.2,6.1,5.3,1.2,11.7c-18.1,23.6-28.6,50.2-30.8,79.9C249,393.3,249,393.3,240.9,393.1z"/>
	<path class="st2" d="M294.8,264c1-0.2,1.6,0.4,2.1,1c2.6,3.1,5.1,6.3,7.6,9.5c0.9,1.2,0.7,2.3-0.4,3.3c-1,0.9-2.1,1.9-3.2,2.7
		c-2.6,1.8-4.5,6.4-7.5,5.4c-4.3-1.4-7-5.9-10.1-9.4c-0.9-1-0.6-2,0.3-2.9c3.1-3.3,6.5-6.3,10.1-9
		C294.1,264.3,294.5,264.1,294.8,264z"/>
</g>
</svg>
