<?xml version="1.0" encoding="utf-8"?>
<!-- Generator: Adobe Illustrator 23.1.1, SVG Export Plug-In . SVG Version: 6.00 Build 0)  -->
<svg version="1.1" id="Layer_1" xmlns="http://www.w3.org/2000/svg" xmlns:xlink="http://www.w3.org/1999/xlink" x="0px" y="0px"
	 viewBox="0 0 512 512" style="enable-background:new 0 0 512 512;" xml:space="preserve">
<style type="text/css">
	.st0{fill-rule:evenodd;clip-rule:evenodd;fill:#6D6E70;}
	.st1{fill:#EA9023;}
	.st2{fill:#6D6E70;}
</style>
<g>
	<polygon class="st0" points="186.1,48.7 3.6,48.7 3.6,119.8 169.8,119.8 96.6,439.3 168.6,439.4 259.2,48.3 	"/>
	<polygon class="st1" points="256,280.4 253.9,277.1 252.8,281.8 	"/>
	<path class="st1" d="M271.6,224l0.6,0.8c0.6,0.8,0.6,1.9,0,2.5l-0.6,0.4c-0.2,0.2-0.4,0.3-0.7,0.4l-0.1,0.1l-6.2,3.6l-9,38.8
		l5.3,8.3c0.4,0.1,0.7,0.3,1,0.7l0.6,0.8c0.6,0.8,0.6,1.9,0,2.5l-0.3,0.1c-0.3,0.3-0.5,0.5-0.9,0.7l-0.9,0.4
		c-0.3,0.1-0.6,0.1-0.8,0.1l-7.8,3.4l-26.4,114.4l22,0.1l69.2-294.3h121.4l5.2-21.4H298.1l-30.8,133.2l2.8,3.8
		C270.6,223.2,271.2,223.5,271.6,224"/>
	<polygon class="st1" points="230.1,301.2 231.2,296.5 228.2,297.9 	"/>
	<polygon class="st1" points="253.8,201.1 255.2,195 250.9,197.2 	"/>
	<path class="st1" d="M222.5,297.8c-0.2-0.3-0.3-0.6-0.3-0.9l-0.2-0.4c-0.3-0.8,0.3-1.8,1.2-2.2l0.9-0.3c0.5-0.2,1-0.2,1.4-0.1
		l7-3.1l8.2-34.6l-5.8-9.2l-0.1-0.1l-0.6-0.8c-0.1-0.2-0.1-0.4-0.2-0.6l-0.5-0.7c-0.3-0.8,0.3-1.8,1.2-2.2l0.9-0.3
		c0.3-0.1,0.7-0.1,1-0.1l8.4-4.9l7.1-30.3l-6.2-8.3c-0.3-0.1-0.5-0.3-0.6-0.5l-0.6-0.7c-0.2-0.3-0.2-0.5-0.3-0.8l-0.4-0.5
		c-0.3-0.8,0.3-1.8,1.2-2.2l0.9-0.4c0.5-0.2,0.8-0.2,1.2-0.1l8.9-4.6L285,68.6h161.2l5.2-21.4H290.1l0.1-0.4l-23.2,0.4l-82.7,354.7
		l22,0.1l22.2-93.9l-5.4-9.7L222.5,297.8z"/>
	<polygon class="st1" points="239.9,245.9 242.3,249.7 243.7,243.7 	"/>
	<path class="st2" d="M495.2,65c-6.7,0-11.3,4.3-12.7,10.1H289c0,0-10.5,46.1-25.2,110.1c0,0.1,0,0.1,0,0.1l-7.1,3.6l-8.9,4.6
		c-0.4-0.1-0.8-0.1-1.2,0.1l-0.9,0.3c-1,0.4-1.6,1.4-1.2,2.2l0.4,0.5c0.1,0.3,0.1,0.5,0.3,0.8l0.6,0.8c0.2,0.3,0.4,0.4,0.6,0.5
		l6.2,8.3l13.5,18.3l-20.7,12l-8.4,4.9c-0.3,0-0.6,0-1,0.1l-0.9,0.3c-1,0.4-1.6,1.4-1.2,2.2l0.5,0.7c0.1,0.2,0.1,0.4,0.2,0.6
		l0.6,0.8l0.1,0.1l5.8,9.2l13.2,20.9l2.1,3.4l-3.2,1.4l-20.3,9l-7,3.1c-0.5-0.1-1-0.1-1.4,0.1l-0.9,0.3c-1,0.4-1.6,1.4-1.2,2.2
		l0.2,0.4c0.1,0.3,0.1,0.6,0.3,0.9l0.6,0.7l5.4,9.7l4.7,8.4c-18.2,79.3-22.6,99.6-27.7,122.1c-0.3,0-0.7-0.1-1-0.1
		c-7.2,0-13.1,5.9-13.1,13.2c0,7.3,5.8,13.1,13.1,13.1c7.2,0,13.1-5.9,13.1-13.1c0-5.3-3.1-9.8-7.6-11.9c5.1-22,9.7-42,28.6-123.3
		c0-0.1-0.1-0.3-0.3-0.5c0-0.2,0-0.5-0.1-0.6l-7.9-14.3l-1.9-3.4l3.1-1.4l20.3-9l7.8-3.4c0.3,0,0.6,0,0.8-0.1l0.9-0.4
		c0.4-0.1,0.6-0.4,0.9-0.7l0.3-0.1c0.6-0.6,0.7-1.7,0-2.5l-0.6-0.8c-0.3-0.3-0.6-0.6-1-0.7l-5.3-8.3l-13.2-20.9l-2.4-3.8l3.8-1.9
		l20.7-12l6.2-3.6l0.1-0.1c0.3-0.1,0.5-0.3,0.7-0.4l0.6-0.4c0.6-0.5,0.7-1.7,0-2.5l-0.6-0.8c-0.4-0.5-1-0.8-1.5-0.8l-2.8-3.8
		L253.8,201l-2.9-3.9l4.3-2.2l12.1-6.2c0.5,0.3,1,0.4,1,0.2c0.1-0.6,0.3-1.2,0.4-1.8V187c11.8-50.5,21.2-91.6,24.7-106.3h189
		c1.2,5.9,6,10.4,12.8,10.4c6.8,0,13.1-5.9,13.1-13.1C508.3,70.8,501.9,65,495.2,65"/>
</g>
</svg>
